<?xml version="1.0" encoding="UTF-8" standalone="no"?>
<!-- Creator: ESRI ArcMap 9.0.0.535 -->
<svg
   xmlns:dc="http://purl.org/dc/elements/1.1/"
   xmlns:cc="http://web.resource.org/cc/"
   xmlns:rdf="http://www.w3.org/1999/02/22-rdf-syntax-ns#"
   xmlns:svg="http://www.w3.org/2000/svg"
   xmlns="http://www.w3.org/2000/svg"
   xmlns:sodipodi="http://sodipodi.sourceforge.net/DTD/sodipodi-0.dtd"
   xmlns:inkscape="http://www.inkscape.org/namespaces/inkscape"
   width="200"
   height="200"
   viewBox="0 0 777.74173 413.26299"
   enable-background="new 0 0 777.74173 413.26299"
   version="1.0"
   id="Municipios de la provincia de Santa Cruz de Tenerife"
   sodipodi:version="0.32"
   inkscape:version="0.44"
   sodipodi:docname="Fuerteventura municipios.svg"
   sodipodi:docbase="d:\Home\Wikipedia\Projectos\África\Canárias">
  <metadata
     id="metadata227">
    <rdf:RDF>
      <cc:Work
         rdf:about="">
        <dc:format>image/svg+xml</dc:format>
        <dc:type
           rdf:resource="http://purl.org/dc/dcmitype/StillImage" />
      </cc:Work>
    </rdf:RDF>
  </metadata>
  <defs
     id="defs225">
    <clipPath
       id="SVG_CP_1">
      <path
         id="path6"
         d="M 0,0 L 0,413.26299 L 777.74173,413.26299 L 777.74173,0 L 0,0 z " />
    </clipPath>
    <clipPath
       id="clipPath2006">
      <path
         d="M 0,0 L 0,413.26299 L 777.74173,413.26299 L 777.74173,0 L 0,0 z "
         id="path2845" />
    </clipPath>
  </defs>
  <sodipodi:namedview
     inkscape:window-height="682"
     inkscape:window-width="1024"
     inkscape:pageshadow="2"
     inkscape:pageopacity="0.0"
     guidetolerance="10.0"
     gridtolerance="10.0"
     objecttolerance="10.0"
     borderopacity="1.0"
     bordercolor="#666666"
     pagecolor="#ffffff"
     id="base"
     inkscape:zoom="2.535"
     inkscape:cx="100"
     inkscape:cy="100"
     inkscape:window-x="-4"
     inkscape:window-y="-4"
     inkscape:current-layer="Municipios de la provincia de Santa Cruz de Tenerife"
     width="200px"
     height="200px" />
  <g
     id="Fuerteventura"
     transform="matrix(4.57435,0,0,4.57435,-1815.548,-913.8097)">
    <path
       clip-path="url(#SVG_CP_1)"
       d="M 543.10748,241.21657 L 542.86748,241.6966 L 543.58747,243.37672 L 542.62749,245.05683 L 543.34747,245.53687 L 542.62749,247.457 L 542.1475,246.97696 L 541.42752,247.21698 L 539.74756,252.97738 L 537.8276,255.61756 L 538.30759,257.29767 L 537.58761,259.45782 L 536.38763,260.89792 L 536.86762,261.13794 L 536.14764,262.33802 L 534.46768,262.57804 L 534.70767,264.73818 L 533.02771,267.37837 L 534.22768,270.49858 L 533.98769,271.69866 L 533.02771,272.89874 L 533.26771,273.61879 L 532.78772,273.13876 L 531.58774,273.85881 L 529.90778,278.89916 L 529.1878,279.61921 L 529.42779,278.89916 L 517.66806,260.41789 L 502.06842,251.05724 L 502.54841,247.93703 L 504.94836,244.5768 L 504.22837,237.85634 L 504.94836,236.41624 L 510.22824,234.73612 L 513.34816,235.21616 L 517.90806,234.01607 L 518.62804,234.73612 L 520.308,234.73612 L 522.94794,233.77606 L 524.6279,233.77606 L 528.9478,236.65626 L 532.30773,237.3763 L 533.5077,238.57639 L 543.10748,241.21657 z "
       id="Antigua"
       style="fill:#ffff00;fill-rule:evenodd;stroke:black;stroke-width:0.85011174;stroke-linejoin:round;stroke-opacity:1;stroke-miterlimit:4;stroke-dasharray:none" />
    <path
       clip-path="url(#SVG_CP_1)"
       d="M 495.82857,224.89545 L 498.9485,225.6155 L 501.82843,224.89545 L 503.50839,226.09553 L 504.94836,226.09553 L 505.66834,228.49569 L 505.18835,229.93579 L 510.22824,234.73612 L 504.94836,236.41624 L 504.22837,237.85634 L 504.94836,244.5768 L 502.54841,247.93703 L 502.06842,251.05724 L 497.26854,250.3372 L 496.30856,251.53728 L 493.42862,248.65708 L 489.58871,248.65708 L 488.38874,247.21698 L 488.38874,246.25691 L 487.18877,245.05683 L 483.34886,244.81682 L 482.62887,244.5768 L 482.62887,243.61673 L 484.30883,241.21657 L 484.06884,239.29644 L 484.78882,237.61632 L 493.90861,229.21574 L 495.82857,224.89545 z "
       id="Betancuria"
       style="fill:#ffff00;fill-rule:evenodd;stroke:black;stroke-width:0.85011174;stroke-linejoin:round;stroke-opacity:1;stroke-miterlimit:4;stroke-dasharray:none" />
    <path
       id="La Oliva"
       d="M 549.59374,164.40625 L 545.28124,167.28125 L 546.46874,169.9375 L 547.43749,169.6875 L 548.62499,170.90625 L 549.59374,170.15625 L 550.06249,167.28125 L 549.59374,164.40625 z M 534.46874,166.34375 L 529.65624,168.96875 L 527.99999,167.53125 L 527.49999,167.53125 L 525.34374,170.40625 L 524.62499,168.96875 L 521.49999,171.375 L 521.28124,170.90625 L 520.56249,171.625 L 519.09374,171.375 L 518.87499,172.09375 L 517.65624,171.625 L 517.65624,172.34375 L 516.71874,172.34375 L 515.49999,173.78125 L 513.34374,173.78125 L 513.59374,174.5 L 511.90624,176.90625 L 510.71874,176.40625 L 510.21874,175.4375 L 509.49999,176.90625 L 510.46874,177.625 L 509.49999,177.84375 L 509.49999,180.25 L 510.71874,180.96875 L 510.46874,182.1875 L 511.43749,184.09375 L 509.49999,190.09375 L 508.31249,191.28125 L 508.31249,193.6875 L 507.09374,194.1875 L 507.34374,194.90625 L 505.65624,198 L 506.87499,202.09375 L 505.65624,204.96875 L 504.71874,206.40625 L 508.56249,208.34375 L 513.09374,209.0625 L 516.71874,209.0625 L 521.03124,207.375 L 526.06249,208.09375 L 530.62499,206.90625 L 531.81249,208.09375 L 533.28124,208.34375 L 536.15624,207.375 L 547.18749,209.0625 L 546.71874,206.40625 L 548.15624,202.5625 L 547.18749,199.6875 L 548.15624,198.71875 L 546.71874,193.46875 L 545.99999,184.5625 L 546.46874,180.25 L 545.03124,177.625 L 545.28124,176.1875 L 544.06249,173.0625 L 541.90624,172.8125 L 540.93749,171.625 L 539.99999,171.84375 L 539.28124,170.90625 L 539.74999,169.21875 L 539.28124,168.71875 L 538.06249,169.6875 L 537.09374,167.53125 L 534.46874,166.34375 z "
       style="fill:#ffff00;fill-rule:evenodd;stroke:black;stroke-width:0.85011174;stroke-linejoin:round;stroke-opacity:1;stroke-miterlimit:4;stroke-dasharray:none" />
    <path
       clip-path="url(#SVG_CP_1)"
       d="M 483.34886,244.81682 L 487.18877,245.05683 L 488.38874,246.25691 L 488.38874,247.21698 L 489.58871,248.65708 L 493.42862,248.65708 L 496.30856,251.53728 L 497.26854,250.3372 L 502.06842,251.05724 L 501.10845,255.13752 L 502.30842,255.85757 L 502.30842,256.81764 L 499.66848,258.97779 L 498.9485,260.41789 L 496.78855,262.098 L 495.10858,262.57804 L 487.42876,270.01855 L 486.22879,270.49858 L 485.26881,269.77853 L 482.62887,270.97861 L 482.86887,272.89874 L 484.78882,273.37878 L 486.46878,275.77894 L 486.94877,276.97902 L 485.9888,279.13917 L 486.94877,281.77935 L 486.46878,283.9395 L 487.18877,285.3796 L 486.46878,287.29973 L 486.94877,289.93992 L 488.86873,291.86005 L 489.10872,293.06013 L 486.94877,293.54016 L 485.9888,294.74024 L 484.06884,294.50023 L 482.86887,295.94033 L 474.70906,296.66038 L 473.50908,297.86046 L 470.86914,298.58051 L 469.90917,299.54057 L 468.94919,301.94074 L 467.26923,304.10089 L 465.58927,305.06095 L 464.62929,307.2211 L 463.18932,308.6612 L 462.70933,310.34132 L 457.90944,316.34173 L 454.78951,318.98191 L 450.9496,324.26227 L 448.30966,325.46236 L 441.34982,323.30221 L 439.18987,323.78224 L 435.34996,322.34214 L 433.67,322.34214 L 422.63026,318.50188 L 419.51033,318.26186 L 415.19043,319.46194 L 414.23045,320.90204 L 413.75046,320.42201 L 415.19043,318.98191 L 415.43042,317.54181 L 417.11038,316.58175 L 417.11038,314.18158 L 415.91041,313.22151 L 416.87039,312.50146 L 417.35038,310.82135 L 419.27033,313.22151 L 420.95029,312.02143 L 421.19029,312.50146 L 421.67028,312.26145 L 423.35024,312.9815 L 424.31022,312.02143 L 425.2702,312.9815 L 430.07008,312.50146 L 440.38985,309.38125 L 443.50977,307.70114 L 443.74977,306.98109 L 443.98976,307.46112 L 448.30966,305.54099 L 453.58954,302.18076 L 455.2695,300.02061 L 461.74935,295.22028 L 469.42918,288.2598 L 471.58913,284.65955 L 472.30911,279.13917 L 473.02909,277.45906 L 472.30911,276.49899 L 472.7891,274.81888 L 471.82912,271.21863 L 472.54911,268.81846 L 473.26909,268.09841 L 472.54911,266.17828 L 473.74908,262.098 L 474.70906,260.89792 L 478.78896,258.25774 L 479.98893,254.65749 L 481.90889,252.97738 L 481.90889,247.93703 L 483.10886,247.21698 L 482.86887,246.0169 L 483.34886,244.81682 z "
       id="Pájara"
       style="fill:#ffff00;fill-rule:evenodd;stroke:black;stroke-width:0.85011174;stroke-linejoin:round;stroke-opacity:1;stroke-miterlimit:4;stroke-dasharray:none" />
    <path
       clip-path="url(#SVG_CP_1)"
       d="M 547.18738,209.05436 L 546.94739,210.25444 L 547.66737,211.45452 L 545.26743,214.09471 L 545.26743,215.05477 L 545.98741,215.77482 L 545.98741,217.69495 L 544.30745,220.57515 L 544.30745,222.49528 L 543.58747,223.45535 L 541.90751,223.45535 L 541.18752,223.93538 L 539.50756,227.77565 L 541.66751,232.09594 L 541.42752,234.01607 L 541.90751,235.69619 L 540.70753,236.89627 L 540.70753,238.33637 L 541.66751,240.2565 L 542.86748,240.49652 L 543.10748,241.21657 L 533.5077,238.57639 L 532.30773,237.3763 L 528.9478,236.65626 L 524.6279,233.77606 L 522.94794,233.77606 L 520.308,234.73612 L 518.62804,234.73612 L 517.90806,234.01607 L 513.34816,235.21616 L 510.22824,234.73612 L 505.18835,229.93579 L 505.66834,228.49569 L 504.94836,226.09553 L 503.50839,226.09553 L 501.82843,224.89545 L 498.9485,225.6155 L 495.82857,224.89545 L 496.30856,222.97532 L 498.9485,218.415 L 499.90847,214.81476 L 500.86845,214.09471 L 500.62846,211.93456 L 501.82843,211.21451 L 502.30842,209.29438 L 504.70836,206.41418 L 508.54828,208.33431 L 513.10817,209.05436 L 516.70809,209.05436 L 521.02799,207.37424 L 526.06787,208.09429 L 530.62777,206.89421 L 531.82774,208.09429 L 533.26771,208.33431 L 536.14764,207.37424 L 547.18738,209.05436 z "
       id="Puerto del Rosario"
       style="fill:#ffff00;fill-rule:evenodd;stroke:black;stroke-width:0.85011174;stroke-linejoin:round;stroke-opacity:1;stroke-miterlimit:4;stroke-dasharray:none" />
    <path
       clip-path="url(#SVG_CP_1)"
       d="M 529.1878,279.61921 L 525.10789,283.69949 L 522.46795,284.17952 L 516.70809,283.9395 L 515.74811,285.61962 L 511.42821,288.73983 L 510.70823,288.01978 L 509.74825,288.01978 L 505.66834,289.93992 L 502.06842,289.93992 L 500.62846,290.65996 L 499.18849,290.17993 L 498.9485,291.14 L 495.34858,292.34008 L 494.86859,291.86005 L 492.46865,293.06013 L 490.54869,292.5801 L 489.10872,293.06013 L 488.86873,291.86005 L 486.94877,289.93992 L 486.46878,287.29973 L 487.18877,285.3796 L 486.46878,283.9395 L 486.94877,281.77935 L 485.9888,279.13917 L 486.94877,276.97902 L 486.46878,275.77894 L 484.78882,273.37878 L 482.86887,272.89874 L 482.62887,270.97861 L 485.26881,269.77853 L 486.22879,270.49858 L 487.42876,270.01855 L 495.10858,262.57804 L 496.78855,262.098 L 498.9485,260.41789 L 499.66848,258.97779 L 502.30842,256.81764 L 502.30842,255.85757 L 501.10845,255.13752 L 502.06842,251.05724 L 517.66806,260.41789 L 529.42779,278.89916 L 529.1878,279.61921 z "
       id="Tuineje"
       style="fill:#ffff00;fill-rule:evenodd;stroke:black;stroke-width:0.85011174;stroke-linejoin:round;stroke-opacity:1;stroke-miterlimit:4;stroke-dasharray:none" />
    <path
       id="Isla de Fuerteventura"
       d="M 534.46875,166.34375 L 529.65625,168.96875 L 528,167.53125 L 527.5,167.53125 L 525.34375,170.40625 L 524.625,168.96875 L 521.5,171.375 L 521.28125,170.90625 L 520.5625,171.625 L 519.09375,171.375 L 518.875,172.09375 L 517.65625,171.625 L 517.65625,172.34375 L 516.71875,172.34375 L 515.5,173.78125 L 513.34375,173.78125 L 513.59375,174.5 L 511.90625,176.90625 L 510.71875,176.40625 L 510.21875,175.4375 L 509.5,176.90625 L 510.46875,177.625 L 509.5,177.84375 L 509.5,180.25 L 510.71875,180.96875 L 510.46875,182.1875 L 511.4375,184.09375 L 509.5,190.09375 L 508.3125,191.28125 L 508.3125,193.6875 L 507.09375,194.1875 L 507.34375,194.90625 L 505.65625,198 L 506.875,202.09375 L 505.65625,204.96875 L 504.71875,206.40625 L 502.3125,209.28125 L 501.84375,211.21875 L 500.625,211.9375 L 500.875,214.09375 L 499.90625,214.8125 L 498.9375,218.40625 L 496.3125,222.96875 L 495.84375,224.90625 L 498.9375,225.625 L 497.5,225.375 L 495.84375,224.90625 L 493.90625,229.21875 L 484.78125,237.625 L 484.0625,239.28125 L 484.3125,241.21875 L 482.625,243.625 L 482.625,244.5625 L 483.34375,244.8125 L 482.875,246.03125 L 483.09375,247.21875 L 481.90625,247.9375 L 481.90625,252.96875 L 480,254.65625 L 478.78125,258.25 L 474.71875,260.90625 L 473.75,262.09375 L 472.5625,266.1875 L 473.28125,268.09375 L 472.5625,268.8125 L 471.84375,271.21875 L 472.78125,274.8125 L 472.3125,276.5 L 473.03125,277.46875 L 472.3125,279.125 L 471.59375,284.65625 L 469.4375,288.25 L 461.75,295.21875 L 455.28125,300.03125 L 453.59375,302.1875 L 448.3125,305.53125 L 444,307.46875 L 443.75,306.96875 L 443.5,307.6875 L 440.375,309.375 L 430.0625,312.5 L 425.28125,312.96875 L 424.3125,312.03125 L 423.34375,312.96875 L 421.65625,312.25 L 421.1875,312.5 L 420.9375,312.03125 L 419.28125,313.21875 L 417.34375,310.8125 L 416.875,312.5 L 415.90625,313.21875 L 417.125,314.1875 L 417.125,316.59375 L 415.4375,317.53125 L 415.1875,318.96875 L 413.75,320.4375 L 414.21875,320.90625 L 415.1875,319.46875 L 419.5,318.25 L 422.625,318.5 L 433.65625,322.34375 L 435.34375,322.34375 L 439.1875,323.78125 L 441.34375,323.3125 L 448.3125,325.46875 L 450.9375,324.25 L 454.78125,318.96875 L 457.90625,316.34375 L 462.71875,310.34375 L 463.1875,308.65625 L 464.625,307.21875 L 465.59375,305.0625 L 467.28125,304.09375 L 468.9375,301.9375 L 469.90625,299.53125 L 470.875,298.59375 L 473.5,297.875 L 474.71875,296.65625 L 482.875,295.9375 L 484.0625,294.5 L 486,294.75 L 486.9375,293.53125 L 489.09375,293.0625 L 490.5625,292.59375 L 492.46875,293.0625 L 494.875,291.875 L 495.34375,292.34375 L 498.9375,291.125 L 499.1875,290.1875 L 500.625,290.65625 L 502.0625,289.9375 L 505.65625,289.9375 L 509.75,288.03125 L 510.71875,288.03125 L 511.4375,288.75 L 515.75,285.625 L 516.71875,283.9375 L 522.46875,284.1875 L 525.09375,283.6875 L 529.1875,279.625 L 529.90625,278.90625 L 531.59375,273.84375 L 532.78125,273.125 L 533.28125,273.625 L 533.03125,272.90625 L 534,271.6875 L 534.21875,270.5 L 533.03125,267.375 L 534.71875,264.75 L 534.46875,262.5625 L 536.15625,262.34375 L 536.875,261.125 L 536.375,260.90625 L 537.59375,259.46875 L 538.3125,257.3125 L 537.8125,255.625 L 539.75,252.96875 L 541.4375,247.21875 L 542.15625,246.96875 L 542.625,247.46875 L 543.34375,245.53125 L 542.625,245.0625 L 543.59375,243.375 L 542.875,241.6875 L 543.09375,241.21875 L 542.875,240.5 L 541.65625,240.25 L 540.71875,238.34375 L 540.71875,236.90625 L 541.90625,235.6875 L 541.4375,234.03125 L 541.65625,232.09375 L 539.5,227.78125 L 541.1875,223.9375 L 541.90625,223.46875 L 543.59375,223.46875 L 544.3125,222.5 L 544.3125,220.5625 L 546,217.6875 L 546,215.78125 L 545.28125,215.0625 L 545.28125,214.09375 L 547.65625,211.46875 L 546.9375,210.25 L 547.1875,209.0625 L 546.71875,206.40625 L 548.15625,202.5625 L 547.1875,199.6875 L 548.15625,198.71875 L 546.71875,193.46875 L 546,184.5625 L 546.46875,180.25 L 545.03125,177.625 L 545.28125,176.1875 L 544.0625,173.0625 L 541.90625,172.8125 L 540.9375,171.625 L 540,171.84375 L 539.28125,170.90625 L 539.75,169.21875 L 539.28125,168.71875 L 538.0625,169.6875 L 537.09375,167.53125 L 534.46875,166.34375 z "
       style="fill:none;fill-rule:evenodd;stroke:black;stroke-width:1.70022349;stroke-linejoin:round;stroke-miterlimit:4;stroke-dasharray:none;stroke-opacity:1" />
    <path
       clip-path="url(#SVG_CP_1)"
       stroke-miterlimit="10"
       d="M 547.90737,170.17169 L 547.42738,169.69166 L 546.4674,169.93167 L 545.26743,167.29149 L 549.58733,164.41129 L 550.06732,167.29149 L 549.58733,170.17169 L 548.62735,170.89174 L 547.90737,170.17169"
       id="Isla de Lobos"
       style="fill:none;stroke:black;stroke-width:1.70022349;stroke-linejoin:round;stroke-miterlimit:10;stroke-dasharray:none" />
  </g>
</svg>
