<?xml version="1.0" encoding="UTF-8" standalone="no"?>
<!-- Creator: ESRI ArcMap 9.0.0.535 -->

<svg
   xmlns:dc="http://purl.org/dc/elements/1.1/"
   xmlns:cc="http://creativecommons.org/ns#"
   xmlns:rdf="http://www.w3.org/1999/02/22-rdf-syntax-ns#"
   xmlns:svg="http://www.w3.org/2000/svg"
   xmlns="http://www.w3.org/2000/svg"
   xmlns:sodipodi="http://sodipodi.sourceforge.net/DTD/sodipodi-0.dtd"
   xmlns:inkscape="http://www.inkscape.org/namespaces/inkscape"
   width="60.42345"
   height="54.690933"
   viewBox="0 0 234.96919 113.00869"
   enable-background="new 0 0 777.74173 413.26299"
   version="1.0"
   id="Municipios de la provincia de Santa Cruz de Tenerife"
   sodipodi:version="0.32"
   inkscape:version="0.47 r22583"
   sodipodi:docname="La_Gomera_municipio_Vallehermoso.svg">
  <metadata
     id="metadata227">
    <rdf:RDF>
      <cc:Work
         rdf:about="">
        <dc:format>image/svg+xml</dc:format>
        <dc:type
           rdf:resource="http://purl.org/dc/dcmitype/StillImage" />
      </cc:Work>
    </rdf:RDF>
  </metadata>
  <defs
     id="defs225">
    <inkscape:perspective
       sodipodi:type="inkscape:persp3d"
       inkscape:vp_x="0 : 100 : 1"
       inkscape:vp_y="0 : 1000 : 0"
       inkscape:vp_z="200 : 100 : 1"
       inkscape:persp3d-origin="100 : 66.666667 : 1"
       id="perspective18" />
    <clipPath
       id="SVG_CP_1">
      <path
         id="path6"
         d="m 0,0 0,413.26299 777.74173,0 L 777.74173,0 0,0 z" />
    </clipPath>
    <clipPath
       id="clipPath2006">
      <path
         d="m 0,0 0,413.26299 777.74173,0 L 777.74173,0 0,0 z"
         id="path2845" />
    </clipPath>
  </defs>
  <sodipodi:namedview
     inkscape:window-height="682"
     inkscape:window-width="1024"
     inkscape:pageshadow="2"
     inkscape:pageopacity="0.0"
     guidetolerance="10.0"
     gridtolerance="10.0"
     objecttolerance="10.0"
     borderopacity="1.0"
     bordercolor="#666666"
     pagecolor="#ffffff"
     id="base"
     inkscape:zoom="2.535"
     inkscape:cx="30.211811"
     inkscape:cy="-6.7031741"
     inkscape:window-x="231"
     inkscape:window-y="-4"
     inkscape:current-layer="Municipios de la provincia de Santa Cruz de Tenerife"
     width="200px"
     height="200px"
     showgrid="false"
     inkscape:window-maximized="0" />
  <g
     id="Gomera"
     transform="matrix(3.333396,0,0,3.333396,-1105.7155,-778.77177)">
    <path
       clip-path="url(#SVG_CP_1)"
       stroke-miterlimit="10"
       d="m 364.79159,225.13546 0.23999,0.48004 1.19998,-0.72005 3.83991,0.96006 1.43996,-0.48003 0.71999,1.4401 1.67996,-1.20008 1.43997,0.48003 -0.24,0.48003 0.95998,0.24002 0.23999,1.20008 1.91996,1.92013 0.23999,1.92014 -2.15995,0 -1.91995,2.16014 -2.87994,1.20009 -7.19983,8.16056 -2.63994,8.88061 -3.35992,-3.60025 0,-1.68012 1.67996,-4.80033 -0.23999,-2.40016 2.15995,-1.20008 0.71998,-4.08028 3.59992,-4.08028 0,-1.20009 -1.67996,-2.16014 0.23999,-2.40017 0,0.48003"
       id="Agulo"
       style="fill:#ffff00;fill-opacity:1;stroke:#000000;stroke-width:1.16659069;stroke-linecap:square;stroke-linejoin:round;stroke-miterlimit:6.5714283;stroke-opacity:1;stroke-dasharray:none" />
    <path
       clip-path="url(#SVG_CP_1)"
       d="m 346.792,272.65873 1.43997,-3.36023 9.35979,-8.16056 2.39994,-3.84027 0.23999,-3.84026 1.43997,-1.20008 3.59992,9.12062 9.35978,17.52121 -1.19997,0.48003 0,0.96007 -4.55989,-1.20009 -3.35993,0.24002 -4.55989,1.92013 -3.35992,-2.16015 -4.07991,0.24002 -0.47999,-3.36023 -4.55989,-0.72005 -0.47999,-2.64018 -1.19998,0 z"
       id="Alajeró"
       style="fill:#ffff00;fill-rule:evenodd;stroke:none" />
    <path
       clip-path="url(#SVG_CP_1)"
       stroke-miterlimit="10"
       d="m 379.43125,232.57598 1.19997,0.48003 2.39995,-0.72005 0.71998,0.48003 -0.23999,1.92013 2.63994,-0.24001 0,2.16015 4.55989,1.92013 -4.0799,4.32029 -4.07991,-0.48003 -1.67996,1.4401 -1.43997,-0.24002 -0.23999,1.92014 -4.07991,3.12021 -5.99986,1.68012 -1.19997,4.08028 -6.23986,-2.16015 2.63994,-8.88061 7.19983,-8.16056 2.87994,-1.20009 1.91995,-2.16014 2.15995,0 0.95998,0.72005"
       id="Hermigua"
       style="fill:#ffff00;fill-opacity:1;stroke:#000000;stroke-width:1.16659069;stroke-linecap:square;stroke-linejoin:round;stroke-miterlimit:6.5714283;stroke-opacity:1;stroke-dasharray:none" />
    <path
       clip-path="url(#SVG_CP_1)"
       d="m 390.71099,238.57639 3.35992,2.64018 2.15995,0 0.47999,2.40016 1.19998,0.24002 0.47998,0.96007 -0.95997,2.16014 2.87993,1.4401 -0.71998,1.92014 0.95998,2.88019 -0.95998,0.72005 0.23999,2.64018 1.19997,2.64018 -2.15995,2.40017 -0.95997,-0.72005 -2.15995,4.08028 -3.35993,0.96007 -3.83991,3.36023 -0.47999,2.16015 -1.91995,-0.24002 -2.87994,3.84026 -1.43996,0 0.23999,1.68012 -0.95998,0.24001 -0.95997,-1.20008 -1.43997,0.48004 -1.67996,2.40016 -2.39995,0.24002 -9.35978,-17.52121 -3.59992,-9.12062 6.23986,2.16015 1.19997,-4.08028 5.99986,-1.68012 4.07991,-3.12021 0.23999,-1.92014 1.43997,0.24002 1.67996,-1.4401 4.07991,0.48003 4.0799,-4.32029 z"
       id="San Sebastián de la Gomera"
       style="fill:#ffff00;fill-opacity:1;fill-rule:evenodd;stroke:#000000;stroke-width:1.16659069;stroke-linejoin:round;stroke-miterlimit:6.5714283;stroke-opacity:1;stroke-dasharray:none" />
    <path
       clip-path="url(#SVG_CP_1)"
       stroke-miterlimit="10"
       d="m 335.99225,237.85634 0.95998,-1.4401 0.24,-3.84026 1.67996,-3.60025 2.15995,-1.20008 -0.24,-1.92014 1.19998,-1.92013 2.87993,0.24002 1.91995,-1.92013 1.91996,0.96006 1.67996,-1.68011 1.67996,0.24001 0.95998,-1.68011 0.95998,-0.24002 0.23999,1.20008 3.59992,-0.96006 2.63994,4.32029 1.43997,-0.24001 0.47998,1.20008 2.39995,-0.72005 -0.23999,2.40017 1.67996,2.16014 0,1.20009 -3.59992,4.08028 -0.71998,4.08028 -2.15995,1.20008 0.23999,2.40016 -1.67996,4.80033 0,1.68012 3.35992,3.60025 -1.43997,1.20008 -0.23999,3.84026 -2.39994,3.84027 -9.35979,8.16056 -1.43997,3.36023 -3.59991,-1.4401 -1.91996,-2.64018 -0.71998,0.24001 -0.24,-5.28036 -2.63994,-1.92013 0.95998,-0.72005 0.71999,-3.12021 1.43996,-1.68012 8.6398,-5.76039 0.71999,-1.92014 5.51987,-0.72005 -3.83991,-1.92013 -1.19997,-2.8802 -3.11993,-2.16014 -2.63994,-0.48004 -2.15995,2.16015 -1.67996,0.24002 -2.63994,-2.64018 -1.43997,0 -1.91995,-0.72005 0.95997,-1.4401"
       id="Vallehermoso"
       style="fill:#ffff00;fill-opacity:1;stroke:#000000;stroke-width:1.16659069;stroke-linecap:square;stroke-linejoin:round;stroke-miterlimit:6.5714283;stroke-opacity:1;stroke-dasharray:none" />
    <path
       clip-path="url(#SVG_CP_1)"
       d="m 337.67221,261.61797 -1.91995,-0.72005 -1.19997,-3.36023 -1.67996,-1.4401 0.47998,-6.00041 1.67997,-3.84027 -1.19998,-3.60024 0,-2.64018 1.19998,-0.72005 1.91995,0.72005 1.43997,0 2.63994,2.64018 1.67996,-0.24002 2.15995,-2.16015 2.63994,0.48004 3.11993,2.16014 1.19997,2.8802 3.83991,1.92013 -5.51987,0.72005 -0.71999,1.92014 -8.6398,5.76039 -1.43996,1.68012 -0.71999,3.12021 -0.95998,0.72005 z"
       id="Valle Gran Rey"
       style="fill:#ffff00;fill-opacity:1;fill-rule:evenodd;stroke:#000000;stroke-width:1.16659069;stroke-linejoin:round;stroke-miterlimit:6.5714283;stroke-opacity:1;stroke-dasharray:none" />
    <path
       id="Contorno de Gomera"
       transform="translate(-5.257724e-6,0)"
       d="m 354,219.84375 -0.96875,0.25 -0.96875,1.6875 -1.65625,-0.25 -1.6875,1.6875 -1.9375,-0.96875 -1.90625,1.9375 -2.875,-0.25 -1.21875,1.90625 0.25,1.9375 -2.15625,1.1875 -1.6875,3.59375 -0.25,3.84375 -0.9375,1.4375 -0.96875,1.4375 -1.1875,0.75 0,2.625 1.1875,3.59375 -1.6875,3.84375 -0.46875,6 1.6875,1.4375 1.1875,3.375 1.9375,0.71875 2.625,1.90625 0.25,5.28125 0.71875,-0.21875 1.90625,2.625 3.59375,1.4375 1.21875,0 0.46875,2.65625 4.5625,0.71875 0.46875,3.34375 4.09375,-0.25 3.34375,2.1875 4.5625,-1.9375 3.375,-0.25 4.5625,1.21875 0,-0.96875 1.1875,-0.46875 2.40625,-0.25 1.6875,-2.40625 1.4375,-0.46875 0.96875,1.1875 0.9375,-0.21875 -0.21875,-1.6875 1.4375,0 2.875,-3.84375 1.90625,0.25 0.5,-2.15625 3.84375,-3.375 3.34375,-0.96875 2.15625,-4.0625 0.96875,0.71875 2.15625,-2.40625 -1.1875,-2.65625 -0.25,-2.625 0.96875,-0.71875 -0.96875,-2.875 0.71875,-1.9375 -2.875,-1.4375 0.96875,-2.15625 -0.5,-0.96875 -1.1875,-0.21875 -0.5,-2.40625 -2.15625,0 -3.34375,-2.65625 -4.5625,-1.90625 0,-2.15625 -2.65625,0.25 0.25,-1.9375 -0.71875,-0.46875 -2.40625,0.71875 -1.1875,-0.5 -0.96875,-0.71875 -0.25,-1.90625 -1.90625,-1.90625 -0.25,-1.21875 -0.9375,-0.25 0.21875,-0.46875 -1.4375,-0.46875 -1.6875,1.1875 -0.71875,-1.4375 -1.4375,0.46875 -3.84375,-0.9375 -1.1875,0.71875 -0.25,-0.5 0,-0.46875 -2.375,0.71875 -0.5,-1.1875 -1.4375,0.21875 -2.625,-4.3125 -3.625,0.96875 L 354,219.84375 z"
       style="fill:none;stroke:#000000;stroke-width:2.33318138;stroke-linecap:square;stroke-linejoin:round;stroke-miterlimit:7.5999999;stroke-opacity:1;stroke-dasharray:none" />
  </g>
</svg>
