<?xml version="1.0" encoding="UTF-8" standalone="no"?>
<!-- Creator: ESRI ArcMap 9.0.0.535 -->

<svg
   xmlns:dc="http://purl.org/dc/elements/1.1/"
   xmlns:cc="http://creativecommons.org/ns#"
   xmlns:rdf="http://www.w3.org/1999/02/22-rdf-syntax-ns#"
   xmlns:svg="http://www.w3.org/2000/svg"
   xmlns="http://www.w3.org/2000/svg"
   xmlns:sodipodi="http://sodipodi.sourceforge.net/DTD/sodipodi-0.dtd"
   xmlns:inkscape="http://www.inkscape.org/namespaces/inkscape"
   width="68.03109"
   height="109.60522"
   viewBox="0 0 264.55309 226.47893"
   enable-background="new 0 0 777.74173 413.26299"
   version="1.0"
   id="Municipios de la provincia de Santa Cruz de Tenerife"
   sodipodi:version="0.32"
   inkscape:version="0.47 r22583"
   sodipodi:docname="La_Palma_municipio_Villa_de_Mazo.svg">
  <metadata
     id="metadata227">
    <rdf:RDF>
      <cc:Work
         rdf:about="">
        <dc:format>image/svg+xml</dc:format>
        <dc:type
           rdf:resource="http://purl.org/dc/dcmitype/StillImage" />
      </cc:Work>
    </rdf:RDF>
  </metadata>
  <defs
     id="defs225">
    <inkscape:perspective
       sodipodi:type="inkscape:persp3d"
       inkscape:vp_x="0 : 100 : 1"
       inkscape:vp_y="0 : 1000 : 0"
       inkscape:vp_z="200 : 100 : 1"
       inkscape:persp3d-origin="100 : 66.666667 : 1"
       id="perspective26" />
    <clipPath
       id="SVG_CP_1">
      <path
         id="path6"
         d="m 0,0 0,413.26299 777.74173,0 L 777.74173,0 0,0 z" />
    </clipPath>
    <clipPath
       id="clipPath2006">
      <path
         d="m 0,0 0,413.26299 777.74173,0 L 777.74173,0 0,0 z"
         id="path2845" />
    </clipPath>
  </defs>
  <sodipodi:namedview
     inkscape:window-height="682"
     inkscape:window-width="1024"
     inkscape:pageshadow="2"
     inkscape:pageopacity="0.0"
     guidetolerance="10.0"
     gridtolerance="10.0"
     objecttolerance="10.0"
     borderopacity="1.0"
     bordercolor="#666666"
     pagecolor="#ffffff"
     id="base"
     inkscape:zoom="2.535"
     inkscape:cx="34.015616"
     inkscape:cy="33.621451"
     inkscape:window-x="313"
     inkscape:window-y="-2"
     inkscape:current-layer="Municipios de la provincia de Santa Cruz de Tenerife"
     width="200px"
     height="200px"
     showgrid="false"
     inkscape:window-maximized="0" />
  <g
     id="La Palma"
     transform="matrix(3.333396,0,0,3.333396,-521.74616,-158.38023)">
    <path
       clip-path="url(#SVG_CP_1)"
       d="m 201.59535,26.1618 9.35979,-1.20009 1.43996,-1.68011 3.59992,1.4401 1.91996,-0.96007 0,0.96007 2.87993,0.24001 0.23999,2.40017 0.95998,0.24002 -0.47999,1.92013 1.19998,0.48003 0,1.68012 -5.27988,4.32029 -5.99986,1.4401 -0.71999,1.92013 -3.11993,1.4401 -0.23999,1.4401 -7.67982,8.88061 -2.87994,-2.16015 1.91996,-2.40016 -1.19997,-0.72005 0,-4.56031 1.67996,-3.36024 -0.47999,-0.72004 2.15995,-3.12022 0,-2.16015 0.95998,-0.24001 -0.95998,-1.92014 0.95998,-0.72005 -0.24,-2.88019 z"
       id="Barlovento"
       style="fill:#ffff00;fill-opacity:1;fill-rule:evenodd;stroke:#000000;stroke-width:1.16659069;stroke-linejoin:round;stroke-miterlimit:4.5;stroke-opacity:1;stroke-dasharray:none" />
    <path
       clip-path="url(#SVG_CP_1)"
       d="m 221.75489,75.84521 0.95998,3.60025 -0.95998,1.92013 -1.67996,0.72005 -0.71999,2.40016 -5.27988,3.60025 -0.47998,1.4401 -3.59992,3.12021 -4.79989,0.72005 -1.43997,0.96007 2.87994,-8.16056 -0.47999,-7.68053 -1.67996,-6.72046 2.87993,0.24002 7.19983,3.84026 2.63994,-1.20008 1.91996,-2.16015 2.15995,0 0.71998,0.48003 -1.19997,2.8802 0.95998,0 z"
       id="Breña Alta"
       style="fill:#ffff00;fill-opacity:1;fill-rule:evenodd;stroke:#000000;stroke-width:1.16659069;stroke-linejoin:round;stroke-miterlimit:4.5;stroke-opacity:1;stroke-dasharray:none" />
    <path
       clip-path="url(#SVG_CP_1)"
       d="m 222.71487,79.44546 1.19997,0.72005 0.47999,1.4401 -0.71999,0.72004 1.67996,1.92014 -0.47998,2.64018 0.95997,3.12021 -3.83991,-0.96006 -2.87993,0.24001 -12.47971,7.2005 -2.39995,2.8802 -2.39994,0.48003 0,-2.40017 1.19997,-0.48003 0.71998,-2.64018 1.43997,-0.96007 4.79989,-0.72005 3.59992,-3.12021 0.47998,-1.4401 5.27988,-3.60025 0.71999,-2.40016 1.67996,-0.72005 0.95998,-1.92013 z"
       id="Breña Baja"
       style="fill:#ffff00;fill-opacity:1;fill-rule:evenodd;stroke:#000000;stroke-width:1.16659069;stroke-linejoin:round;stroke-miterlimit:4.5;stroke-opacity:1;stroke-dasharray:none" />
    <path
       clip-path="url(#SVG_CP_1)"
       d="m 192.23557,112.56773 9.83977,0 0.71998,-1.68011 0.71999,0 -0.24,2.16014 -1.19997,0.24002 -0.47999,5.04035 9.35979,3.60024 2.39994,2.40017 -0.95998,0.24002 -1.91995,4.08028 -2.87994,2.64018 -4.55989,11.52079 -2.63994,1.4401 -2.15995,-1.20008 0,-0.96007 -1.43997,0.24002 -3.59991,-4.56032 -0.47999,-2.40016 0.71998,-0.96007 -1.91996,-3.36023 0.47999,-8.16056 -1.43996,-1.4401 0.71998,0 -0.23999,-2.8802 -1.19998,-1.92013 -0.23999,-2.16015 -1.43997,-0.96006 4.07991,-0.96007 z"
       id="Fuencaliente"
       style="fill:#ffff00;fill-opacity:1;fill-rule:evenodd;stroke:#000000;stroke-width:1.16659069;stroke-linejoin:round;stroke-miterlimit:4.5;stroke-opacity:1;stroke-dasharray:none" />
    <path
       clip-path="url(#SVG_CP_1)"
       d="m 201.59535,26.1618 0.24,2.88019 -0.95998,0.72005 0.95998,1.92014 -0.95998,0.24001 0,2.16015 -2.15995,3.12022 0.47999,0.72004 -1.67996,3.36024 0,4.56031 1.19997,0.72005 -1.91996,2.40016 -3.11993,-0.48003 -4.0799,3.60025 -2.87993,-1.68012 -4.5599,1.20008 -1.19997,-0.72004 -3.83991,-4.08029 -3.11993,0 -4.07991,-2.40016 -4.55989,-4.80033 -0.47999,-1.4401 -1.67996,-0.72005 2.87993,-2.8802 -0.23999,-2.16014 0.95997,0.48003 1.19998,-1.4401 0,-1.4401 1.19997,-0.72005 -0.24,-1.4401 2.39995,-0.48003 3.83991,-4.08028 3.83991,-0.48003 1.91996,-1.20009 -0.24,-1.20008 0.95998,-1.20008 1.43997,0.96006 0.71998,-1.44009 2.39995,1.20008 0,1.92013 3.83991,2.40017 1.43996,-0.96007 0.47999,1.4401 5.75987,0.96006 0.95998,1.20009 2.87993,-0.72005 z"
       id="Garafía"
       style="fill:#ffff00;fill-opacity:1;fill-rule:evenodd;stroke:#000000;stroke-width:1.16659069;stroke-linejoin:round;stroke-miterlimit:4.5;stroke-opacity:1;stroke-dasharray:none" />
    <path
       clip-path="url(#SVG_CP_1)"
       d="m 178.55588,75.60519 1.19998,1.92014 0.95997,-1.20009 0.24,0.48004 2.15995,-0.96007 1.91995,1.20008 0.95998,1.92013 2.87994,0.72005 -0.71999,1.20009 -1.43996,-0.48004 -1.91996,1.20009 0.71998,0.48003 2.39995,6.00041 1.19997,0 0.71998,1.92013 -0.23999,2.8802 1.67996,7.20049 -0.47999,3.12022 1.43997,9.36064 -4.07991,0.96007 -2.39994,-6.00041 -2.15995,-1.4401 -0.71999,-2.8802 -2.15995,-2.40017 3.59992,-0.24001 -2.15995,-11.04076 -0.47999,-1.68012 -1.91995,-0.96006 -0.24,-3.36023 -2.87993,0 -2.15995,-0.96007 2.15995,-1.92013 -0.71999,-1.92013 1.91996,-2.8802 0.71998,-0.24002 z"
       id="Los Llanos de Aridane"
       style="fill:#ffff00;fill-opacity:1;fill-rule:evenodd;stroke:#000000;stroke-width:1.16659069;stroke-linejoin:round;stroke-miterlimit:4.5;stroke-opacity:1;stroke-dasharray:none" />
    <path
       clip-path="url(#SVG_CP_1)"
       d="m 199.6754,51.12351 3.83991,3.36023 0.23999,7.68053 -2.63994,4.56031 3.35993,5.04035 1.67996,6.72046 0.47999,7.68053 -2.87994,8.16056 -0.71998,2.64018 -1.19997,0.48003 0,2.40017 0.95997,1.68011 -0.47998,4.08028 0.71998,0.48004 -0.95998,0.72005 0.71998,4.08028 -0.71998,1.68011 -9.83977,0 -1.43997,-9.36064 0.47999,-3.12022 -1.67996,-7.20049 0.23999,-2.8802 -0.71998,-1.92013 -1.19997,0 -2.39995,-6.00041 -0.71998,-0.48003 1.91996,-1.20009 1.43996,0.48004 0.71999,-1.20009 -2.87994,-0.72005 -0.95998,-1.92013 -1.91995,-1.20008 -2.15995,0.96007 -0.24,-0.48004 -0.95997,1.20009 -1.19998,-1.92014 1.19998,-0.48003 0.95997,-3.12021 -0.71998,-0.72005 0,-1.92014 4.07991,-6.24042 0.23999,-2.16015 2.87993,-4.80033 -0.47998,-1.20008 2.87993,-2.8802 4.0799,-3.60025 3.11993,0.48003 2.87994,2.16015 z"
       id="El Paso"
       style="fill:#ffff00;fill-opacity:1;fill-rule:evenodd;stroke:#000000;stroke-width:1.16659069;stroke-linejoin:round;stroke-miterlimit:4.5;stroke-opacity:1;stroke-dasharray:none" />
    <path
       clip-path="url(#SVG_CP_1)"
       d="m 189.59563,52.08358 -2.87993,2.8802 -13.91968,-2.16015 -0.47999,-1.20009 -3.35993,0 -1.19997,1.20009 -5.27988,0.48003 -0.95997,1.20008 -3.83992,-5.28036 0.95998,-1.92013 -0.23999,-6.48045 2.63994,-1.68011 0.23999,-1.68012 1.91996,0 1.67996,0.72005 0.47999,1.4401 4.55989,4.80033 4.07991,2.40016 3.11993,0 3.83991,4.08029 1.19997,0.72004 4.5599,-1.20008 2.87993,1.68012 z"
       id="Puntagorda"
       style="fill:#ffff00;fill-opacity:1;fill-rule:evenodd;stroke:#000000;stroke-width:1.16659069;stroke-linejoin:round;stroke-miterlimit:4.5;stroke-opacity:1;stroke-dasharray:none" />
    <path
       clip-path="url(#SVG_CP_1)"
       d="m 203.51531,54.48374 2.39994,-0.96006 5.03989,0.48003 3.59991,-1.68012 2.87994,0 2.63994,-3.36023 4.55989,-2.16015 0.71998,-2.40016 1.67997,-1.4401 0.71998,3.60025 1.67996,2.8802 2.15995,0.96006 1.43997,4.56032 1.67996,0.48003 0,1.4401 -2.15995,2.8802 -0.24,2.40016 -5.51987,4.80033 -3.11993,-5.52038 -5.51987,-3.12021 -2.15995,0.24001 -2.15995,-1.68011 -4.3199,-0.96007 -1.43997,1.4401 -4.55989,-2.8802 z"
       id="Puntallana"
       style="fill:#ffff00;fill-opacity:1;fill-rule:evenodd;stroke:#000000;stroke-width:1.16659069;stroke-linejoin:round;stroke-miterlimit:4.5;stroke-opacity:1;stroke-dasharray:none" />
    <path
       clip-path="url(#SVG_CP_1)"
       d="m 222.71487,31.68218 2.87993,4.80033 0,4.80033 1.43997,1.68011 -1.67997,1.4401 -0.71998,2.40016 -4.55989,2.16015 -2.63994,3.36023 -2.87994,0 -3.59991,1.68012 -5.03989,-0.48003 -2.39994,0.96006 -3.83991,-3.36023 7.67982,-8.88061 0.23999,-1.4401 3.11993,-1.4401 0.71999,-1.92013 5.99986,-1.4401 5.27988,-4.32029 z"
       id="San Andrés y Sauces"
       style="fill:#ffff00;fill-opacity:1;fill-rule:evenodd;stroke:#000000;stroke-width:1.16659069;stroke-linejoin:round;stroke-miterlimit:4.5;stroke-opacity:1;stroke-dasharray:none" />
    <path
       clip-path="url(#SVG_CP_1)"
       d="m 226.79477,66.9646 -1.91995,2.40016 0,2.8802 -1.91996,2.40017 -1.19997,1.20008 -0.95998,0 1.19997,-2.8802 -0.71998,-0.48003 -2.15995,0 -1.91996,2.16015 -2.63994,1.20008 -7.19983,-3.84026 -2.87993,-0.24002 -3.35993,-5.04035 2.63994,-4.56031 -0.23999,-7.68053 4.55989,2.8802 1.43997,-1.4401 4.3199,0.96007 2.15995,1.68011 2.15995,-0.24001 5.51987,3.12021 3.11993,5.52038 z"
       id="Santa Cruz de La Palma"
       style="fill:#ffff00;fill-opacity:1;fill-rule:evenodd;stroke:#000000;stroke-width:1.16659069;stroke-linejoin:round;stroke-miterlimit:4.5;stroke-opacity:1;stroke-dasharray:none" />
    <path
       clip-path="url(#SVG_CP_1)"
       stroke-miterlimit="10"
       d="m 176.39593,79.68547 0.24,0.96007 -2.15995,1.92013 2.15995,0.96007 2.87993,0 0.24,3.36023 1.91995,0.96006 0.47999,1.68012 2.15995,11.04076 -3.59992,0.24001 -2.15995,-1.44009 0.95998,-3.36024 -0.47999,-2.40016 -4.55989,-9.60066 -1.91996,-2.16015 3.35992,-3.12021 0.47999,0.96006"
       id="Tazacorte"
       style="fill:#ffff00;fill-opacity:1;stroke:#000000;stroke-width:1.16659069;stroke-linecap:square;stroke-linejoin:round;stroke-miterlimit:4.5;stroke-opacity:1;stroke-dasharray:none" />
    <path
       clip-path="url(#SVG_CP_1)"
       d="m 161.51628,54.48374 0.95997,-1.20008 5.27988,-0.48003 1.19997,-1.20009 3.35993,0 0.47999,1.20009 13.91968,2.16015 0.47998,1.20008 -2.87993,4.80033 -0.23999,2.16015 -4.07991,6.24042 0,1.92014 0.71998,0.72005 -0.95997,3.12021 -1.19998,0.48003 -0.71998,0.24002 -1.91996,2.8802 -3.35992,3.12021 -1.91995,-3.36023 -1.91996,-1.20008 0.47999,-2.64018 -3.11993,-8.88061 0.24,-1.68012 -1.67997,-2.40016 -0.23999,-3.36023 -2.15995,-1.4401 -0.71998,-2.40017 z"
       id="Tijarafe"
       style="fill:#ffff00;fill-opacity:1;fill-rule:evenodd;stroke:#000000;stroke-width:1.16659069;stroke-linejoin:round;stroke-miterlimit:4.5;stroke-opacity:1;stroke-dasharray:none" />
    <path
       clip-path="url(#SVG_CP_1)"
       d="m 225.83479,90.00618 0.95998,3.12022 -1.91995,2.88019 0.47998,5.7604 -0.95997,1.20008 0.71998,0.48004 -1.67996,1.92013 0.23999,3.60024 -7.67982,8.16057 -2.63994,7.20049 -2.39994,-2.40017 -9.35979,-3.60024 0.47999,-5.04035 1.19997,-0.24002 0.24,-2.16014 -0.71999,0 -0.71998,-4.08028 0.95998,-0.72005 -0.71998,-0.48004 0.47998,-4.08028 -0.95997,-1.68011 2.39994,-0.48003 2.39995,-2.8802 12.47971,-7.2005 2.87993,-0.24001 3.83991,0.96006 z"
       id="Villa de Mazo"
       style="fill:#ffff00;fill-opacity:1;fill-rule:evenodd;stroke:#000000;stroke-width:1.16659069;stroke-linejoin:round;stroke-miterlimit:4.5;stroke-opacity:1;stroke-dasharray:none" />
    <path
       id="Contorno de La Palma"
       transform="translate(-5.257724e-6,0)"
       d="m 183.84375,18.71875 -0.71875,1.4375 -1.4375,-0.96875 -0.96875,1.21875 0.25,1.1875 -1.9375,1.21875 -3.84375,0.46875 -3.84375,4.09375 -2.375,0.46875 0.21875,1.4375 L 168,30 l 0,1.4375 -1.21875,1.4375 -0.9375,-0.46875 0.21875,2.15625 -2.875,2.875 -1.90625,0 -0.25,1.6875 -2.625,1.6875 0.21875,6.46875 -0.9375,1.9375 3.84375,5.25 0.71875,2.40625 2.15625,1.4375 0.21875,3.375 1.6875,2.40625 -0.25,1.65625 3.125,8.90625 -0.46875,2.625 1.90625,1.21875 1.9375,3.34375 1.90625,2.15625 4.5625,9.59375 0.5,2.40625 -0.96875,3.375 2.15625,1.4375 2.15625,2.40625 0.71875,2.875 2.15625,1.4375 2.40625,6 1.4375,0.96875 0.25,2.15625 1.1875,1.90625 0.25,2.875 -0.71875,0 1.4375,1.4375 -0.5,8.1875 1.9375,3.34375 -0.71875,0.96875 0.46875,2.40625 3.59375,4.5625 1.46875,-0.25 0,0.96875 2.15625,1.1875 2.625,-1.4375 4.5625,-11.53125 2.875,-2.625 1.9375,-4.09375 0.9375,-0.21875 L 216,117.125 l 7.6875,-8.15625 -0.25,-3.59375 1.6875,-1.9375 -0.71875,-0.46875 0.9375,-1.1875 L 224.875,96 226.78125,93.125 226.3125,91.4375 225.84375,90 224.875,86.875 l 0.46875,-2.625 -1.65625,-1.9375 0.71875,-0.71875 -0.5,-1.4375 -1.1875,-0.71875 -0.46875,-1.90625 -0.5,-1.6875 1.21875,-1.1875 1.90625,-2.40625 0,-2.875 0.96875,-1.21875 0.9375,-1.1875 5.53125,-4.8125 0.25,-2.40625 2.15625,-2.875 0,-1.4375 -1.6875,-0.46875 -1.4375,-4.5625 -2.15625,-0.96875 -1.6875,-2.875 -0.71875,-3.59375 -1.4375,-1.6875 0,-4.8125 -1.4375,-2.375 -1.4375,-2.40625 0,-1.6875 -1.21875,-0.46875 0.5,-1.9375 -0.96875,-0.21875 -0.25,-2.40625 -2.875,-0.25 0,-0.96875 -1.90625,0.96875 -3.59375,-1.4375 -1.4375,1.6875 -9.375,1.1875 -2.875,0.71875 -0.96875,-1.1875 -5.75,-0.96875 -0.5,-1.4375 -1.4375,0.96875 -3.8125,-2.40625 0,-1.9375 -2.40625,-1.1875 z"
       style="fill:none;stroke:#000000;stroke-width:2.33318138;stroke-linejoin:round;stroke-miterlimit:4;stroke-opacity:1;stroke-dasharray:none" />
  </g>
</svg>
