<?xml version="1.0" encoding="UTF-8" standalone="no"?>
<!-- Creator: ESRI ArcMap 9.0.0.535 -->
<svg
   xmlns:dc="http://purl.org/dc/elements/1.1/"
   xmlns:cc="http://web.resource.org/cc/"
   xmlns:rdf="http://www.w3.org/1999/02/22-rdf-syntax-ns#"
   xmlns:svg="http://www.w3.org/2000/svg"
   xmlns="http://www.w3.org/2000/svg"
   xmlns:sodipodi="http://sodipodi.sourceforge.net/DTD/sodipodi-0.dtd"
   xmlns:inkscape="http://www.inkscape.org/namespaces/inkscape"
   width="200"
   height="200"
   viewBox="0 0 777.74173 413.26299"
   enable-background="new 0 0 777.74173 413.26299"
   version="1.0"
   id="Municipios de la provincia de Santa Cruz de Tenerife"
   sodipodi:version="0.32"
   inkscape:version="0.44"
   sodipodi:docname="Lanzarote municipios.svg"
   sodipodi:docbase="d:\Home\Wikipedia\Projectos\África\Canárias">
  <metadata
     id="metadata227">
    <rdf:RDF>
      <cc:Work
         rdf:about="">
        <dc:format>image/svg+xml</dc:format>
        <dc:type
           rdf:resource="http://purl.org/dc/dcmitype/StillImage" />
      </cc:Work>
    </rdf:RDF>
  </metadata>
  <defs
     id="defs225">
    <clipPath
       id="SVG_CP_1">
      <path
         id="path6"
         d="M 0,0 L 0,413.26299 L 777.74173,413.26299 L 777.74173,0 L 0,0 z " />
    </clipPath>
    <clipPath
       id="clipPath2006">
      <path
         d="M 0,0 L 0,413.26299 L 777.74173,413.26299 L 777.74173,0 L 0,0 z "
         id="path2845" />
    </clipPath>
  </defs>
  <sodipodi:namedview
     inkscape:window-height="682"
     inkscape:window-width="1024"
     inkscape:pageshadow="2"
     inkscape:pageopacity="0.0"
     guidetolerance="10.0"
     gridtolerance="10.0"
     objecttolerance="10.0"
     borderopacity="1.0"
     bordercolor="#666666"
     pagecolor="#ffffff"
     id="base"
     inkscape:zoom="2.535"
     inkscape:cx="100"
     inkscape:cy="100"
     inkscape:window-x="-4"
     inkscape:window-y="-4"
     inkscape:current-layer="Municipios de la provincia de Santa Cruz de Tenerife"
     width="200px"
     height="200px" />
  <g
     id="Lanzarote y Chinijos"
     transform="matrix(4.57435,0,0,4.57435,-2267.325,-174.3258)">
    <path
       clip-path="url(#SVG_CP_1)"
       d="M 604.30607,117.36806 L 601.90612,120.24826 L 602.62611,120.24826 L 602.38611,120.72829 L 601.66613,120.48828 L 601.18614,120.96831 L 598.5462,120.96831 L 597.82622,121.68836 L 593.98631,122.40841 L 593.02633,110.88762 L 593.74631,110.88762 L 595.42627,111.12763 L 599.50618,109.92755 L 599.74617,110.88762 L 600.22616,110.6476 L 599.74617,112.80775 L 600.46616,114.72788 L 603.58608,115.92796 L 604.30607,117.36806 z "
       id="Arrecife"
       style="fill:#ffff00;fill-rule:evenodd;stroke:none;stroke-width:0.85011174;stroke-miterlimit:5;stroke-dasharray:none" />
    <path
       style="fill:#ffff00;fill-opacity:1;stroke:black;stroke-width:0.85011174;stroke-linejoin:round;stroke-miterlimit:5;stroke-dasharray:none;stroke-opacity:1"
       d="M 607.1875,18.71875 L 605.5,19.90625 L 605.03125,19.6875 L 603.09375,23.03125 L 603.34375,25.6875 L 604.0625,25.90625 L 604.78125,26.15625 L 606.46875,25.4375 L 607.90625,25.6875 L 611.75,21.59375 L 608.15625,18.71875 L 607.1875,18.71875 z M 602.375,43.4375 L 601.65625,44.15625 L 601.90625,45.59375 L 601.90625,47.28125 L 603.34375,46.8125 L 603.8125,43.9375 L 603.34375,43.4375 L 602.875,43.9375 L 602.375,43.4375 z M 607.90625,46.5625 L 606.46875,48 L 606.21875,50.40625 L 605.28125,51.375 L 605.5,54.25 L 604.53125,55.4375 L 604.53125,57.375 L 603.59375,58.5625 L 600.9375,59.75 L 600.21875,60.96875 L 601.1875,62.65625 L 602.625,62.40625 L 602.625,62.875 L 602.875,63.375 L 604.3125,62.40625 L 605.28125,62.875 L 607.1875,60.96875 L 608.875,61.4375 L 609.09375,60.25 L 610.3125,59.28125 L 611.28125,57.125 L 612,56.875 L 612,55.4375 L 612.71875,53.75 L 613.4375,53.28125 L 613.90625,53.53125 L 615.09375,52.5625 L 614.875,51.375 L 613.1875,49.4375 L 610.3125,48.96875 L 607.90625,46.5625 z M 615.59375,58.3125 L 614.15625,60.46875 L 610.53125,62.65625 L 610.3125,65.28125 L 608.875,66.5 L 607.1875,72 L 605.75,73.9375 L 605.28125,79.9375 L 604.0625,81.375 L 604.53125,84.71875 L 608.625,86.40625 L 611.75,89.53125 L 617.28125,92.40625 L 619.65625,93.125 L 620.15625,92.40625 L 620.15625,88.8125 L 618.71875,88.09375 L 618.9375,87.375 L 617.03125,85.6875 L 617.03125,82.5625 L 620.625,78.25 L 624,76.8125 L 624.9375,74.15625 L 624,73.6875 L 625.4375,70.3125 L 625.4375,66.25 L 624.71875,64.8125 L 622.78125,64.3125 L 621.8125,62.875 L 621.09375,63.125 L 618.71875,60.96875 L 616.53125,60.96875 L 615.59375,58.3125 z "
       id="Haría" />
    <path
       clip-path="url(#SVG_CP_1)"
       d="M 581.0266,105.84727 L 582.46657,105.36724 L 585.82649,107.04735 L 591.34637,107.28737 L 593.74631,110.88762 L 593.02633,110.88762 L 593.98631,122.40841 L 591.58636,123.12846 L 589.9064,124.56856 L 582.94656,115.20791 L 580.54662,110.40758 L 579.10665,110.16757 L 581.0266,105.84727 z "
       id="San Bartolomé"
       style="fill:#ffff00;fill-opacity:1;fill-rule:evenodd;stroke:black;stroke-width:0.85011174;stroke-linejoin:round;stroke-miterlimit:5;stroke-dasharray:none;stroke-opacity:1" />
    <path
       clip-path="url(#SVG_CP_1)"
       d="M 604.06607,81.36559 L 604.54606,84.72582 L 608.62597,86.40593 L 611.7459,89.52615 L 617.26577,92.40635 L 619.66571,93.1264 L 617.74576,98.16674 L 616.78578,99.12681 L 617.50576,101.04694 L 616.30579,103.68712 L 617.50576,105.84727 L 617.26577,107.04735 L 616.54579,107.7674 L 615.10582,108.24744 L 614.86582,110.16757 L 613.90585,111.60767 L 612.70587,111.60767 L 612.94587,113.04776 L 611.5059,113.04776 L 607.426,115.68795 L 606.70601,116.88803 L 605.74603,116.64801 L 605.50604,117.36806 L 604.30607,117.36806 L 603.58608,115.92796 L 600.46616,114.72788 L 599.74617,112.80775 L 600.22616,110.6476 L 599.74617,110.88762 L 599.50618,109.92755 L 595.42627,111.12763 L 593.74631,110.88762 L 591.34637,107.28737 L 585.82649,107.04735 L 582.46657,105.36724 L 581.0266,105.84727 L 582.94656,97.68671 L 582.46657,92.88638 L 580.30662,84.4858 L 582.46657,84.24579 L 582.70657,85.68589 L 583.90654,85.9259 L 586.54648,83.28572 L 588.22644,82.80569 L 590.14639,81.36559 L 593.74631,81.84562 L 598.78619,85.68589 L 602.62611,83.76575 L 604.06607,81.36559 z "
       id="Teguise"
       style="fill:#ffff00;fill-opacity:1;fill-rule:evenodd;stroke:black;stroke-width:0.85011174;stroke-linejoin:round;stroke-miterlimit:5;stroke-dasharray:none;stroke-opacity:1" />
    <path
       clip-path="url(#SVG_CP_1)"
       d="M 572.14681,114.9679 L 579.10665,110.16757 L 580.54662,110.40758 L 582.94656,115.20791 L 589.9064,124.56856 L 589.18642,126.24867 L 584.38653,128.1688 L 583.18655,129.36889 L 577.66668,129.84892 L 576.7067,129.36889 L 571.18683,130.08894 L 570.22685,120.24826 L 572.14681,114.9679 z "
       id="Tías"
       style="fill:#ffff00;fill-opacity:1;fill-rule:evenodd;stroke:black;stroke-width:0.85011174;stroke-linejoin:round;stroke-miterlimit:5;stroke-dasharray:none;stroke-opacity:1" />
    <path
       clip-path="url(#SVG_CP_1)"
       d="M 550.06732,103.68712 L 556.06718,97.92673 L 558.94711,97.20668 L 560.14709,94.80651 L 565.66696,93.84645 L 566.38694,93.1264 L 569.26688,94.32648 L 570.94684,91.92631 L 572.6268,91.92631 L 574.30676,90.72623 L 574.78675,89.04612 L 577.18669,87.60602 L 578.38666,86.64595 L 579.34664,86.64595 L 578.38666,85.68589 L 578.86665,84.24579 L 580.30662,84.4858 L 582.46657,92.88638 L 582.94656,97.68671 L 581.0266,105.84727 L 579.10665,110.16757 L 572.14681,114.9679 L 562.30704,112.32772 L 550.06732,103.68712 z "
       id="Tinajo"
       style="fill:#ffff00;fill-opacity:1;fill-rule:evenodd;stroke:black;stroke-width:0.85011174;stroke-linejoin:round;stroke-miterlimit:5;stroke-dasharray:none;stroke-opacity:1" />
    <path
       clip-path="url(#SVG_CP_1)"
       d="M 550.06732,103.68712 L 562.30704,112.32772 L 572.14681,114.9679 L 570.22685,120.24826 L 571.18683,130.08894 L 563.747,133.20915 L 561.82705,138.2495 L 562.06704,139.68959 L 559.90709,141.36971 L 557.50715,143.76988 L 557.02716,145.93002 L 554.62721,147.85016 L 553.90723,145.20997 L 551.74728,143.28984 L 549.82732,144.48992 L 547.42738,142.80981 L 545.74742,143.04983 L 544.54745,144.24991 L 542.86748,143.04983 L 541.42752,142.80981 L 539.74756,143.04983 L 537.8276,144.48992 L 537.10762,143.52986 L 537.34761,139.92961 L 535.90764,137.52945 L 537.58761,135.84933 L 540.22754,135.3693 L 540.70753,133.44917 L 541.90751,132.72912 L 542.62749,131.049 L 544.06746,130.32895 L 546.22741,127.68877 L 545.26743,125.76864 L 545.50742,123.36847 L 545.02743,122.64842 L 545.74742,120.96831 L 545.26743,118.80816 L 545.98741,117.36806 L 545.26743,114.48786 L 545.98741,110.16757 L 548.62735,104.64719 L 550.06732,103.68712 z "
       id="Yaiza"
       style="fill:#ffff00;fill-opacity:1;fill-rule:evenodd;stroke:black;stroke-width:0.85011174;stroke-linejoin:round;stroke-miterlimit:5;stroke-dasharray:none;stroke-opacity:1" />
    <path
       id="Contorno de Lanzarote y Chinijos"
       d="M 607.18749,18.71875 L 605.49999,19.90625 L 605.03124,19.6875 L 603.09374,23.03125 L 603.34374,25.6875 L 604.06249,25.90625 L 604.78124,26.15625 L 606.46874,25.4375 L 607.90624,25.6875 L 611.74999,21.59375 L 608.15624,18.71875 L 607.18749,18.71875 z M 602.37499,43.4375 L 601.65624,44.15625 L 601.90624,47.28125 L 603.34374,46.8125 L 603.81249,43.9375 L 603.34374,43.4375 L 602.87499,43.9375 L 602.37499,43.4375 z M 607.90624,46.5625 L 606.46874,48 L 606.21874,50.40625 L 605.28124,51.375 L 605.49999,54.25 L 604.53124,55.4375 L 604.53124,57.375 L 603.59374,58.5625 L 600.93749,59.75 L 600.21874,60.96875 L 601.18749,62.65625 L 602.62499,62.40625 L 602.62499,62.875 L 602.87499,63.375 L 604.31249,62.40625 L 605.28124,62.875 L 607.18749,60.96875 L 608.87499,61.4375 L 609.09374,60.25 L 610.31249,59.28125 L 611.28124,57.125 L 611.99999,56.875 L 611.99999,55.4375 L 612.71874,53.75 L 613.43749,53.28125 L 613.90624,53.53125 L 615.09374,52.5625 L 614.87499,51.375 L 613.18749,49.4375 L 610.31249,48.96875 L 607.90624,46.5625 z M 615.59374,58.3125 L 614.15624,60.46875 L 610.53124,62.65625 L 610.31249,65.28125 L 608.87499,66.5 L 607.18749,72 L 605.74999,73.9375 L 605.28124,79.9375 L 604.06249,81.375 L 602.62499,83.78125 L 598.78124,85.6875 L 593.74999,81.84375 L 590.15624,81.375 L 588.21874,82.8125 L 586.53124,83.28125 L 583.90624,85.9375 L 582.71874,85.6875 L 582.46874,84.25 L 580.31249,84.5 L 578.87499,84.25 L 578.37499,85.6875 L 579.34374,86.65625 L 578.37499,86.65625 L 577.18749,87.59375 L 574.78124,89.03125 L 574.31249,90.71875 L 572.62499,91.9375 L 570.93749,91.9375 L 569.28124,94.3125 L 566.37499,93.125 L 565.65624,93.84375 L 560.15624,94.8125 L 558.93749,97.21875 L 556.06249,97.9375 L 550.06249,103.6875 L 548.62499,104.65625 L 545.99999,110.15625 L 545.28124,114.5 L 545.99999,117.375 L 545.28124,118.8125 L 545.74999,120.96875 L 545.03124,122.65625 L 545.49999,123.375 L 545.28124,125.78125 L 546.21874,127.6875 L 544.06249,130.34375 L 542.62499,131.0625 L 541.90624,132.71875 L 540.71874,133.4375 L 540.21874,135.375 L 537.59374,135.84375 L 535.90624,137.53125 L 537.34374,139.9375 L 537.09374,143.53125 L 537.81249,144.5 L 539.74999,143.0625 L 541.43749,142.8125 L 542.87499,143.0625 L 544.56249,144.25 L 545.74999,143.0625 L 547.43749,142.8125 L 549.81249,144.5 L 551.74999,143.28125 L 553.90624,145.21875 L 554.62499,147.84375 L 557.03124,145.9375 L 557.49999,143.78125 L 559.90624,141.375 L 562.06249,139.6875 L 561.81249,138.25 L 563.74999,133.21875 L 571.18749,130.09375 L 576.71874,129.375 L 577.65624,129.84375 L 583.18749,129.375 L 584.37499,128.15625 L 589.18749,126.25 L 589.90624,124.5625 L 591.59374,123.125 L 593.99999,122.40625 L 597.81249,121.6875 L 598.53124,120.96875 L 601.18749,120.96875 L 601.65624,120.5 L 602.37499,120.71875 L 602.62499,120.25 L 601.90624,120.25 L 603.09374,118.8125 L 604.31249,117.375 L 605.49999,117.375 L 605.74999,116.65625 L 606.71874,116.875 L 607.43749,115.6875 L 611.49999,113.0625 L 612.93749,113.0625 L 612.71874,111.59375 L 613.90624,111.59375 L 614.87499,110.15625 L 615.09374,108.25 L 616.53124,107.78125 L 617.28124,107.0625 L 617.49999,105.84375 L 616.31249,103.6875 L 617.49999,101.0625 L 616.78124,99.125 L 617.74999,98.15625 L 619.65624,93.125 L 620.15624,92.40625 L 620.15624,88.8125 L 618.71874,88.09375 L 618.93749,87.375 L 617.03124,85.6875 L 617.03124,82.5625 L 620.62499,78.25 L 623.99999,76.8125 L 624.93749,74.15625 L 623.99999,73.6875 L 625.43749,70.3125 L 625.43749,66.25 L 624.71874,64.8125 L 622.78124,64.3125 L 621.81249,62.875 L 621.09374,63.125 L 618.71874,60.96875 L 616.53124,60.96875 L 615.59374,58.3125 z "
       style="fill:none;fill-rule:evenodd;stroke:black;stroke-width:1.70022349;stroke-linejoin:round;stroke-miterlimit:4;stroke-dasharray:none;stroke-opacity:1" />
  </g>
</svg>
