<?xml version="1.0" encoding="UTF-8" standalone="no"?>
<!-- Creator: ESRI ArcMap 9.0.0.535 -->
<svg
   xmlns:dc="http://purl.org/dc/elements/1.1/"
   xmlns:cc="http://web.resource.org/cc/"
   xmlns:rdf="http://www.w3.org/1999/02/22-rdf-syntax-ns#"
   xmlns:svg="http://www.w3.org/2000/svg"
   xmlns="http://www.w3.org/2000/svg"
   xmlns:sodipodi="http://sodipodi.sourceforge.net/DTD/sodipodi-0.dtd"
   xmlns:inkscape="http://www.inkscape.org/namespaces/inkscape"
   width="1024"
   height="768"
   viewBox="0 0 777.74173 413.26299"
   enable-background="new 0 0 777.74173 413.26299"
   version="1.0"
   id="Municipios de la provincia de Santa Cruz de Tenerife"
   sodipodi:version="0.32"
   inkscape:version="0.45.1"
   sodipodi:docname="Municipios_y_zonas_de_Tenerife.svg"
   sodipodi:docbase="C:\Documents and Settings\Ego\Desktop"
   inkscape:output_extension="org.inkscape.output.svg.inkscape">
  <metadata
     id="metadata227">
    <rdf:RDF>
      <cc:Work
         rdf:about="">
        <dc:format>image/svg+xml</dc:format>
        <dc:type
           rdf:resource="http://purl.org/dc/dcmitype/StillImage" />
      </cc:Work>
    </rdf:RDF>
  </metadata>
  <defs
     id="defs225">
    <clipPath
       id="SVG_CP_1">
      <path
         id="path6"
         d="M 0,0 L 0,413.26299 L 777.74173,413.26299 L 777.74173,0 L 0,0 z " />
    </clipPath>
  </defs>
  <sodipodi:namedview
     inkscape:window-height="778"
     inkscape:window-width="1280"
     inkscape:pageshadow="2"
     inkscape:pageopacity="0.0"
     guidetolerance="10.0"
     gridtolerance="10.0"
     objecttolerance="10.0"
     borderopacity="1.0"
     bordercolor="#666666"
     pagecolor="#ffffff"
     id="base"
     inkscape:zoom="1"
     inkscape:cx="447.16665"
     inkscape:cy="452.73163"
     inkscape:window-x="0"
     inkscape:window-y="0"
     inkscape:current-layer="layer2"
     width="1024px"
     height="768px"
     showguides="true"
     inkscape:guide-bbox="true" />
  <g
     id="g5520"
     transform="matrix(0.8025362,0,0,0.8025362,76.772933,40.797124)"
     style="font-size:18.92782925">
    <path
       transform="matrix(3.4331983,0,0,3.4331983,-1534.6321,-478.13063)"
       clip-path="url(#SVG_CP_1)"
       d="M 598.5462,151.93044 L 602.38611,146.17004 L 608.86596,148.09017 L 611.5059,150.49034 L 612.70587,150.97037 L 612.70587,152.8905 L 611.26591,155.05065 L 608.62597,158.6509 L 611.26591,161.77111 L 615.34581,162.25114 L 615.34581,161.29108 L 618.70574,164.65131 L 615.10582,167.77152 L 612.46588,167.29149 L 611.26591,168.73159 L 610.54592,168.97161 L 605.26605,167.53151 L 602.62611,165.85139 L 602.38611,164.89133 L 598.78619,163.21121 L 594.2263,163.93126 L 591.58636,163.21121 L 591.82636,161.77111 L 594.46629,158.17086 L 597.82622,153.61055 L 597.58622,151.93044 L 598.5462,151.93044 z "
       id="El Rosario"
       style="fill:#ffff00;fill-opacity:1;fill-rule:evenodd;stroke:#000000;stroke-width:0.44418749;stroke-linejoin:round;stroke-miterlimit:9.41935444;stroke-dasharray:none;stroke-opacity:1;font-size:5.51317681" />
    <path
       transform="matrix(3.4331983,0,0,3.4331983,-1534.6321,-478.13063)"
       clip-path="url(#SVG_CP_1)"
       d="M 591.10637,128.1688 L 594.46629,126.24867 L 594.70629,124.80857 L 598.5462,122.16839 L 603.34609,122.64842 L 606.22602,121.44834 L 606.46602,120.48828 L 611.7459,119.04818 L 612.70587,114.24785 L 615.10582,112.80775 L 616.30579,113.04776 L 617.02577,114.9679 L 619.42572,114.00783 L 622.06566,115.68795 L 623.26563,114.9679 L 624.22561,115.20791 L 625.42558,113.28778 L 628.30551,114.72788 L 629.98548,123.84851 L 629.50549,125.76864 L 626.86555,126.96872 L 625.18559,133.44917 L 628.7855,136.32936 L 629.0255,137.52945 L 625.90557,147.61014 L 623.74562,149.29025 L 622.78564,154.81063 L 620.62569,155.53068 L 620.62569,153.61055 L 613.90585,152.17045 L 612.70587,150.97037 L 611.5059,150.49034 L 608.86596,148.09017 L 602.38611,146.17004 L 598.5462,151.93044 L 599.98617,145.69001 L 601.18614,145.44999 L 600.46616,139.20956 L 593.98631,133.44917 L 591.10637,128.1688 z M 605.98603,139.68959 L 611.5059,135.3693 L 614.62583,133.20915 L 615.8258,134.64925 L 619.18572,133.20915 L 621.10568,131.049 L 623.26563,126.7287 L 619.90571,125.04859 L 611.7459,122.64842 L 609.82594,122.88844 L 607.186,127.92879 L 601.66613,131.28902 L 601.18614,136.32936 L 605.98603,139.68959 z "
       id="San Cristóbal de la Laguna"
       style="fill:#ffff00;fill-opacity:1;fill-rule:evenodd;stroke:#000000;stroke-width:0.44418749;stroke-linejoin:round;stroke-miterlimit:9.41935444;stroke-dasharray:none;stroke-opacity:1;font-size:5.51317681" />
    <path
       style="fill:#ffff00;fill-opacity:1;stroke:#000000;stroke-width:1.52498376;stroke-linecap:square;stroke-linejoin:round;stroke-miterlimit:9.41935444;stroke-dasharray:none;stroke-opacity:1;font-size:18.92782925"
       d="M 730.42045,-106.48691 L 727.95284,-104.0193 L 729.56215,-103.161 L 730.42045,-102.40999 L 730.42045,-106.48691 z M 731.27875,-99.94238 L 723.01762,-96.61647 L 717.22409,-96.61647 L 706.49535,-87.497037 L 669.48118,-76.01728 L 652.10061,-83.420114 L 638.15325,-81.810802 L 624.09859,-89.964648 L 622.48928,-84.278413 L 628.2828,-52.950479 L 626.5662,-46.298657 L 617.55406,-42.221734 L 611.76053,-20.013233 L 624.09859,-10.0355 L 624.95689,-5.958577 L 614.22814,28.695268 L 606.82531,34.381503 L 603.4994,53.371381 L 596.09657,55.838992 L 596.09657,49.294458 L 573.02977,44.251948 L 568.95284,40.175025 L 568.95284,46.719559 L 564.01762,54.229681 L 554.89819,66.567737 L 564.01762,77.296482 L 577.96499,78.905793 L 577.96499,75.579883 L 589.55203,87.166927 L 599.42248,78.905793 L 604.3577,70.64466 L 618.30507,59.164903 L 625.7079,47.577859 L 644.69778,40.175025 L 647.16539,26.978669 L 648.02369,23.652758 L 657.03584,8.0960785 L 667.76458,3.9118681 L 666.90628,2.3025564 L 673.5581,3.0535685 L 675.16741,-0.16505489 L 688.36377,-5.1002775 L 680.96094,1.4442568 L 695.01559,-5.958577 L 704.02774,-16.687322 L 712.28887,-17.545621 L 716.36579,-23.231856 L 732.02976,-30.63469 L 744.36782,-28.167079 L 748.55203,-39.754123 L 752.62895,-43.080034 L 760.89008,-39.754123 L 757.56417,-44.689345 L 759.28077,-55.41809 L 766.68361,-61.962624 L 766.68361,-69.365458 L 761.74838,-71.833069 L 762.4994,-78.484891 L 758.42247,-83.420114 L 753.48725,-84.278413 L 752.62895,-89.964648 L 755.09656,-91.681247 L 731.27875,-99.94238 z "
       id="Santa Cruz de Tenerife" />
    <path
       transform="matrix(3.4331983,0,0,3.4331983,-1534.6321,-478.13063)"
       clip-path="url(#SVG_CP_1)"
       d="M 605.98603,139.68959 L 601.18614,136.32936 L 601.66613,131.28902 L 607.186,127.92879 L 609.82594,122.88844 L 611.7459,122.64842 L 619.90571,125.04859 L 623.26563,126.7287 L 621.10568,131.049 L 619.18572,133.20915 L 615.8258,134.64925 L 614.62583,133.20915 L 611.5059,135.3693 L 605.98603,139.68959 z "
       id="Tegueste"
       style="fill:#ffff00;fill-opacity:1;fill-rule:evenodd;stroke:#000000;stroke-width:0.44418749;stroke-linejoin:round;stroke-miterlimit:9.41935444;stroke-dasharray:none;stroke-opacity:1;font-size:5.51317681" />
  </g>
  <g
     id="g11744"
     style="font-size:15.19026816">
    <path
       transform="matrix(2.7552659,0,0,2.7552659,-1154.8249,-342.92001)"
       clip-path="url(#SVG_CP_1)"
       d="M 476.14902,168.25156 L 474.94905,175.45205 L 474.94905,185.53274 L 475.66903,189.13299 L 479.02896,192.49322 L 476.86901,194.65337 L 478.06898,199.21368 L 474.94905,199.4537 L 474.46906,200.41377 L 471.10914,202.09388 L 469.42918,204.97408 L 467.74922,204.73406 L 466.54924,201.85386 L 467.02923,200.41377 L 464.38929,196.81352 L 462.22934,195.85345 L 461.74935,192.49322 L 458.14944,189.37301 L 457.66945,186.97284 L 455.5095,184.81269 L 452.38957,183.3726 L 451.1896,183.61261 L 450.22962,180.97243 L 451.90958,177.6122 L 455.5095,176.41212 L 457.66945,177.13217 L 461.02937,175.21203 L 461.74935,175.93208 L 464.1493,174.97202 L 465.10928,173.2919 L 467.74922,173.2919 L 467.74922,172.09182 L 471.10914,169.69166 L 473.02909,169.93167 L 473.26909,168.97161 L 476.14902,168.25156 z "
       id="Buenavista del Norte"
       style="fill:#ffff00;fill-opacity:1;fill-rule:evenodd;stroke:#000000;stroke-width:0.44418749;stroke-linejoin:round;stroke-miterlimit:9.41935444;stroke-dasharray:none;stroke-opacity:1;font-size:5.51317685" />
    <path
       transform="matrix(2.7552659,0,0,2.7552659,-1154.8249,-342.92001)"
       clip-path="url(#SVG_CP_1)"
       d="M 501.10845,172.33184 L 500.86845,180.25238 L 499.18849,182.89256 L 502.30842,195.85345 L 506.14833,201.61385 L 510.70823,206.17416 L 499.18849,200.8938 L 495.34858,196.33349 L 493.66862,191.77317 L 492.70864,187.21286 L 493.90861,179.29232 L 493.42862,176.1721 L 490.0687,176.1721 L 489.34872,177.6122 L 486.70878,178.57227 L 485.26881,176.65213 L 491.98866,174.01195 L 492.70864,174.97202 L 494.14861,173.77194 L 497.74852,175.21203 L 501.10845,172.33184 z "
       id="Garachico"
       style="fill:#ffff00;fill-opacity:1;fill-rule:evenodd;stroke:#000000;stroke-width:0.44418749;stroke-linejoin:round;stroke-miterlimit:9.41935444;stroke-dasharray:none;stroke-opacity:1;font-size:5.51317685" />
    <path
       transform="matrix(2.7552659,0,0,2.7552659,-1154.8249,-342.92001)"
       clip-path="url(#SVG_CP_1)"
       d="M 515.9881,169.21162 L 518.14805,168.49157 L 518.86804,165.85139 L 519.58802,166.81146 L 520.308,166.33142 L 521.50798,166.81146 L 523.18794,166.33142 L 524.6279,168.01154 L 523.66793,170.17169 L 525.58788,173.77194 L 525.58788,175.45205 L 529.1878,180.01236 L 530.38777,184.81269 L 536.38763,195.61344 L 527.26784,197.53357 L 529.1878,195.61344 L 529.42779,192.97325 L 526.54786,186.25279 L 523.18794,182.89256 L 521.74797,177.37218 L 520.06801,175.93208 L 515.9881,169.21162 z "
       id="La Guancha"
       style="fill:#ffff00;fill-opacity:1;fill-rule:evenodd;stroke:#000000;stroke-width:0.44418749;stroke-linejoin:round;stroke-miterlimit:9.41935444;stroke-dasharray:none;stroke-opacity:1;font-size:5.51317685" />
    <path
       transform="matrix(2.7552659,0,0,2.7552659,-1154.8249,-342.92001)"
       clip-path="url(#SVG_CP_1)"
       d="M 515.9881,169.21162 L 520.06801,175.93208 L 521.74797,177.37218 L 523.18794,182.89256 L 526.54786,186.25279 L 529.42779,192.97325 L 529.1878,195.61344 L 527.26784,197.53357 L 519.82802,199.4537 L 516.94808,207.13423 L 510.70823,206.17416 L 506.14833,201.61385 L 502.30842,195.85345 L 499.18849,182.89256 L 500.86845,180.25238 L 501.10845,172.33184 L 502.78841,171.8518 L 503.2684,173.2919 L 504.46837,173.53192 L 506.38832,170.17169 L 508.06829,171.37177 L 511.42821,171.37177 L 512.86818,170.41171 L 513.34816,167.77152 L 513.82815,168.73159 L 515.9881,169.21162 z "
       id="Icod de los Vinos"
       style="fill:#ffff00;fill-opacity:1;fill-rule:evenodd;stroke:#000000;stroke-width:0.44418749;stroke-linejoin:round;stroke-miterlimit:9.41935444;stroke-dasharray:none;stroke-opacity:1;font-size:5.51317685" />
    <path
       transform="matrix(2.7552659,0,0,2.7552659,-1154.8249,-342.92001)"
       clip-path="url(#SVG_CP_1)"
       d="M 578.62666,146.89009 L 585.5865,152.41047 L 586.30648,154.3306 L 589.18642,157.45081 L 591.34637,161.77111 L 591.58636,163.21121 L 588.22644,164.65131 L 589.18642,162.73118 L 586.06649,159.13093 L 582.70657,158.41088 L 573.34678,153.85057 L 574.54675,152.17045 L 573.58678,150.25032 L 575.26674,150.0103 L 575.50673,148.81022 L 578.14667,149.05024 L 578.62666,146.89009 z "
       id="La Matanza"
       style="fill:#ffff00;fill-opacity:1;fill-rule:evenodd;stroke:#000000;stroke-width:0.44418749;stroke-linejoin:round;stroke-miterlimit:9.41935444;stroke-dasharray:none;stroke-opacity:1;font-size:5.51317685" />
    <path
       transform="matrix(2.7552659,0,0,2.7552659,-1154.8249,-342.92001)"
       clip-path="url(#SVG_CP_1)"
       d="M 559.90709,161.77111 L 565.42696,159.37095 L 564.46699,161.5311 L 563.747,163.69124 L 569.50687,169.21162 L 572.6268,170.89174 L 575.98672,175.93208 L 575.02674,181.21245 L 570.94684,183.61261 L 570.22685,187.21286 L 569.98686,188.89297 L 566.38694,193.45329 L 566.14695,195.1334 L 562.54703,198.0136 L 561.34706,196.81352 L 560.14709,197.05354 L 555.58719,201.85386 L 553.18725,203.29396 L 553.66723,207.37424 L 552.22727,209.53439 L 551.26729,212.89462 L 548.86735,215.05477 L 544.06746,217.45494 L 539.98755,222.25527 L 538.30759,222.7353 L 533.02771,224.1754 L 532.30773,226.09553 L 527.98783,228.49569 L 521.74797,228.01566 L 519.58802,226.09553 L 516.2281,224.41541 L 514.54814,212.41459 L 516.94808,207.13423 L 519.82802,199.4537 L 527.26784,197.53357 L 536.38763,195.61344 L 540.70753,193.45329 L 541.42752,200.17375 L 547.90737,198.49363 L 550.06732,194.65337 L 551.0273,184.09264 L 549.10734,172.57185 L 550.54731,169.45164 L 551.50728,167.77152 L 555.58719,168.01154 L 557.02716,165.37136 L 560.62707,164.65131 L 559.90709,161.77111 z "
       id="La Orotava"
       style="fill:#ffff00;fill-opacity:1;fill-rule:evenodd;stroke:#000000;stroke-width:0.44418749;stroke-linejoin:round;stroke-miterlimit:9.41935444;stroke-dasharray:none;stroke-opacity:1;font-size:5.51317685" />
    <path
       transform="matrix(2.7552659,0,0,2.7552659,-1154.8249,-342.92001)"
       clip-path="url(#SVG_CP_1)"
       d="M 546.94739,164.41129 L 548.38736,162.97119 L 548.86735,163.69124 L 550.06732,162.97119 L 551.26729,161.29108 L 553.90723,161.5311 L 554.62721,160.81105 L 555.1072,161.5311 L 559.90709,161.77111 L 560.62707,164.65131 L 557.02716,165.37136 L 555.58719,168.01154 L 551.50728,167.77152 L 550.54731,169.45164 L 548.62735,168.97161 L 546.94739,164.41129 z "
       id="Puerto de la Cruz"
       style="fill:#ffff00;fill-opacity:1;fill-rule:evenodd;stroke:#000000;stroke-width:0.44418749;stroke-linejoin:round;stroke-miterlimit:9.41935444;stroke-dasharray:none;stroke-opacity:1;font-size:5.51317685" />
    <path
       transform="matrix(2.7552659,0,0,2.7552659,-1154.8249,-342.92001)"
       clip-path="url(#SVG_CP_1)"
       d="M 532.30773,168.01154 L 538.30759,168.49157 L 539.74756,166.57144 L 540.70753,167.53151 L 542.38749,167.29149 L 544.78744,165.37136 L 546.22741,165.61138 L 546.94739,164.41129 L 548.62735,168.97161 L 550.54731,169.45164 L 549.10734,172.57185 L 551.0273,184.09264 L 550.06732,194.65337 L 547.90737,198.49363 L 541.42752,200.17375 L 540.70753,193.45329 L 532.30773,176.89215 L 531.58774,170.17169 L 532.30773,168.01154 z "
       id="Los Realejos"
       style="fill:#ffff00;fill-opacity:1;fill-rule:evenodd;stroke:#000000;stroke-width:0.44418749;stroke-linejoin:round;stroke-miterlimit:9.41935444;stroke-dasharray:none;stroke-opacity:1;font-size:5.51317685" />
    <path
       transform="matrix(2.7552659,0,0,2.7552659,-1154.8249,-342.92001)"
       clip-path="url(#SVG_CP_1)"
       d="M 524.6279,168.01154 L 527.02785,167.05147 L 528.9478,168.49157 L 532.30773,168.01154 L 531.58774,170.17169 L 532.30773,176.89215 L 540.70753,193.45329 L 536.38763,195.61344 L 530.38777,184.81269 L 529.1878,180.01236 L 525.58788,175.45205 L 525.58788,173.77194 L 523.66793,170.17169 L 524.6279,168.01154 z "
       id="San Juan de la Rambla"
       style="fill:#ffff00;fill-opacity:1;fill-rule:evenodd;stroke:#000000;stroke-width:0.44418749;stroke-linejoin:round;stroke-miterlimit:9.41935444;stroke-dasharray:none;stroke-opacity:1;font-size:5.51317685" />
    <path
       transform="matrix(2.7552659,0,0,2.7552659,-1154.8249,-342.92001)"
       clip-path="url(#SVG_CP_1)"
       d="M 569.74686,155.53068 L 571.90681,159.13093 L 572.86679,158.6509 L 574.54675,159.37095 L 576.7067,161.77111 L 577.90668,165.37136 L 580.78661,168.01154 L 581.74659,170.17169 L 577.66668,172.81187 L 575.98672,175.93208 L 572.6268,170.89174 L 569.50687,169.21162 L 563.747,163.69124 L 564.46699,161.5311 L 565.42696,159.37095 L 567.10693,155.29067 L 568.0669,154.81063 L 569.74686,155.53068 z "
       id="Santa Úrsula"
       style="fill:#ffff00;fill-opacity:1;fill-rule:evenodd;stroke:#000000;stroke-width:0.44418749;stroke-linejoin:round;stroke-miterlimit:9.41935444;stroke-dasharray:none;stroke-opacity:1;font-size:5.51317685" />
    <path
       transform="matrix(2.7552659,0,0,2.7552659,-1154.8249,-342.92001)"
       clip-path="url(#SVG_CP_1)"
       d="M 585.5865,140.40964 L 588.70643,143.52986 L 591.10637,148.09017 L 592.06635,152.65049 L 594.46629,158.17086 L 591.82636,161.77111 L 591.58636,163.21121 L 591.34637,161.77111 L 589.18642,157.45081 L 586.30648,154.3306 L 585.5865,152.41047 L 578.62666,146.89009 L 578.38666,145.93002 L 580.30662,144.48992 L 579.58664,143.52986 L 581.2666,144.48992 L 581.74659,142.56979 L 585.5865,140.40964 z "
       id="El Sauzal"
       style="fill:#ffff00;fill-opacity:1;fill-rule:evenodd;stroke:#000000;stroke-width:0.44418749;stroke-linejoin:round;stroke-miterlimit:9.41935444;stroke-dasharray:none;stroke-opacity:1;font-size:5.51317685" />
    <path
       transform="matrix(2.7552659,0,0,2.7552659,-1154.8249,-342.92001)"
       clip-path="url(#SVG_CP_1)"
       d="M 485.26881,176.65213 L 485.9888,180.73241 L 481.66889,190.33307 L 482.14888,192.73324 L 480.70892,193.45329 L 479.02896,192.49322 L 475.66903,189.13299 L 474.94905,185.53274 L 474.94905,175.45205 L 476.14902,168.25156 L 477.34899,168.49157 L 477.34899,169.93167 L 481.18891,172.81187 L 482.62887,173.2919 L 483.10886,172.33184 L 485.26881,176.65213 z "
       id="Los Silos"
       style="fill:#ffff00;fill-opacity:1;fill-rule:evenodd;stroke:#000000;stroke-width:0.44418749;stroke-linejoin:round;stroke-miterlimit:9.41935444;stroke-dasharray:none;stroke-opacity:1;font-size:5.51317685" />
    <path
       transform="matrix(2.7552659,0,0,2.7552659,-1154.8249,-342.92001)"
       clip-path="url(#SVG_CP_1)"
       d="M 591.10637,128.1688 L 593.98631,133.44917 L 600.46616,139.20956 L 601.18614,145.44999 L 599.98617,145.69001 L 598.5462,151.93044 L 597.58622,151.93044 L 597.82622,153.61055 L 594.46629,158.17086 L 592.06635,152.65049 L 591.10637,148.09017 L 588.70643,143.52986 L 585.5865,140.40964 L 587.02647,136.56938 L 586.78647,135.84933 L 587.98644,134.16922 L 588.22644,131.049 L 591.10637,128.1688 z "
       id="Tacoronte"
       style="fill:#ffff00;fill-opacity:1;fill-rule:evenodd;stroke:#000000;stroke-width:0.44418749;stroke-linejoin:round;stroke-miterlimit:9.41935444;stroke-dasharray:none;stroke-opacity:1;font-size:5.51317685" />
    <path
       transform="matrix(2.7552659,0,0,2.7552659,-1154.8249,-342.92001)"
       clip-path="url(#SVG_CP_1)"
       d="M 485.26881,176.65213 L 486.70878,178.57227 L 489.34872,177.6122 L 490.0687,176.1721 L 493.42862,176.1721 L 493.90861,179.29232 L 492.70864,187.21286 L 493.66862,191.77317 L 495.34858,196.33349 L 499.18849,200.8938 L 485.50881,193.21327 L 482.14888,192.73324 L 481.66889,190.33307 L 485.9888,180.73241 L 485.26881,176.65213 z "
       id="El Tanque"
       style="fill:#ffff00;fill-opacity:1;fill-rule:evenodd;stroke:#000000;stroke-width:0.44418749;stroke-linejoin:round;stroke-miterlimit:9.41935444;stroke-dasharray:none;stroke-opacity:1;font-size:5.51317685" />
    <path
       transform="matrix(2.7552659,0,0,2.7552659,-1154.8249,-342.92001)"
       clip-path="url(#SVG_CP_1)"
       d="M 573.34678,153.85057 L 582.70657,158.41088 L 586.06649,159.13093 L 589.18642,162.73118 L 588.22644,164.65131 L 586.78647,166.33142 L 586.78647,168.73159 L 581.74659,170.17169 L 580.78661,168.01154 L 577.90668,165.37136 L 576.7067,161.77111 L 574.54675,159.37095 L 572.86679,158.6509 L 571.90681,159.13093 L 569.74686,155.53068 L 573.34678,153.85057 z "
       id="La Victoria"
       style="fill:#ffff00;fill-opacity:1;fill-rule:evenodd;stroke:#000000;stroke-width:0.44418749;stroke-linejoin:round;stroke-miterlimit:9.41935444;stroke-dasharray:none;stroke-opacity:1;font-size:5.51317685" />
  </g>
  <g
     id="g11772"
     style="font-size:15.19026816">
    <path
       transform="matrix(2.7552659,0,0,2.7552659,-1154.8249,-342.92001)"
       clip-path="url(#SVG_CP_1)"
       d="M 482.14888,192.73324 L 485.50881,193.21327 L 499.18849,200.8938 L 510.70823,206.17416 L 516.94808,207.13423 L 509.98824,207.13423 L 497.98852,205.2141 L 491.50867,205.93415 L 481.18891,210.49446 L 472.54911,219.37507 L 471.82912,218.89504 L 472.54911,218.17499 L 472.06912,216.01484 L 471.10914,215.29479 L 472.06912,215.05477 L 471.82912,213.61467 L 473.02909,211.69454 L 472.54911,207.85428 L 469.90917,206.41418 L 470.14916,205.2141 L 469.42918,204.97408 L 471.10914,202.09388 L 474.46906,200.41377 L 474.94905,199.4537 L 478.06898,199.21368 L 476.86901,194.65337 L 479.02896,192.49322 L 480.70892,193.45329 L 482.14888,192.73324 z "
       id="Santiago del Teide"
       style="fill:#ffff00;fill-opacity:1;fill-rule:evenodd;stroke:#000000;stroke-width:0.44418749;stroke-linejoin:round;stroke-miterlimit:9.41935444;stroke-dasharray:none;stroke-opacity:1;font-size:5.51317685" />
    <path
       transform="matrix(2.7552659,0,0,2.7552659,-1154.8249,-342.92001)"
       clip-path="url(#SVG_CP_1)"
       d="M 562.54703,198.0136 L 564.70698,202.81393 L 575.98672,207.85428 L 577.66668,210.97449 L 580.30662,213.13464 L 585.10651,215.05477 L 588.22644,217.69495 L 590.86638,218.65502 L 590.38639,221.53522 L 586.06649,227.53563 L 587.02647,229.45576 L 586.30648,231.13588 L 585.10651,229.21574 L 581.50659,227.29561 L 580.78661,224.65543 L 576.7067,222.97532 L 572.6268,217.45494 L 555.58719,201.85386 L 560.14709,197.05354 L 561.34706,196.81352 L 562.54703,198.0136 z "
       id="Fasnia"
       style="fill:#ffff00;fill-opacity:1;fill-rule:evenodd;stroke:#000000;stroke-width:0.44418749;stroke-linejoin:round;stroke-miterlimit:9.41935444;stroke-dasharray:none;stroke-opacity:1;font-size:5.51317685" />
    <path
       transform="matrix(2.7552659,0,0,2.7552659,-1154.8249,-342.92001)"
       clip-path="url(#SVG_CP_1)"
       d="M 521.74797,228.01566 L 519.34803,236.17622 L 517.66806,237.85634 L 513.82815,246.97696 L 514.54814,252.73736 L 512.62818,256.57762 L 512.86818,260.41789 L 504.22837,269.2985 L 501.10845,269.2985 L 500.14847,263.5381 L 499.18849,261.85799 L 494.3886,258.49776 L 494.6286,257.05766 L 493.66862,257.29767 L 493.18863,255.61756 L 491.50867,255.61756 L 491.74866,254.41748 L 490.3087,254.41748 L 482.62887,241.21657 L 489.10872,238.8164 L 497.74852,237.85634 L 505.18835,234.49611 L 516.2281,224.41541 L 519.58802,226.09553 L 521.74797,228.01566 z "
       id="Adeje"
       style="fill:#ffff00;fill-opacity:1;fill-rule:evenodd;stroke:#000000;stroke-width:0.44418749;stroke-linejoin:round;stroke-miterlimit:9.41935444;stroke-dasharray:none;stroke-opacity:1;font-size:5.51317685" />
    <path
       transform="matrix(2.7552659,0,0,2.7552659,-1154.8249,-342.92001)"
       clip-path="url(#SVG_CP_1)"
       d="M 581.74659,170.17169 L 580.78661,172.57185 L 588.70643,179.0523 L 591.10637,182.41253 L 597.58622,186.25279 L 602.38611,186.25279 L 598.06621,189.85304 L 591.10637,187.69289 L 583.42655,188.41294 L 578.86665,186.97284 L 570.22685,187.21286 L 570.94684,183.61261 L 575.02674,181.21245 L 575.98672,175.93208 L 577.66668,172.81187 L 581.74659,170.17169 z "
       id="Arafo"
       style="fill:#ffff00;fill-opacity:1;fill-rule:evenodd;stroke:#000000;stroke-width:0.44418749;stroke-linejoin:round;stroke-miterlimit:9.41935444;stroke-dasharray:none;stroke-opacity:1;font-size:5.51317685" />
    <path
       transform="matrix(2.7552659,0,0,2.7552659,-1154.8249,-342.92001)"
       clip-path="url(#SVG_CP_1)"
       d="M 538.30759,222.7353 L 539.98755,222.25527 L 544.06746,217.45494 L 548.86735,215.05477 L 551.26729,212.89462 L 552.22727,209.53439 L 553.66723,207.37424 L 553.18725,203.29396 L 555.58719,201.85386 L 572.6268,217.45494 L 576.7067,222.97532 L 580.78661,224.65543 L 581.50659,227.29561 L 585.10651,229.21574 L 586.30648,231.13588 L 585.10651,232.57598 L 585.5865,234.97614 L 584.62652,237.13629 L 585.82649,238.8164 L 585.3465,240.01649 L 584.14653,240.01649 L 583.18655,242.65667 L 585.5865,244.5768 L 583.42655,247.21698 L 581.98658,246.73695 L 581.0266,247.457 L 581.0266,249.13711 L 579.10665,249.13711 L 578.38666,251.53728 L 575.26674,253.45741 L 575.02674,256.33761 L 572.86679,257.05766 L 570.22685,260.89792 L 565.90695,255.37754 L 563.987,251.53728 L 559.90709,250.3372 L 558.94711,249.13711 L 555.58719,242.41665 L 550.06732,238.33637 L 544.30745,228.25568 L 541.18752,227.29561 L 538.30759,222.7353 z "
       id="Arico"
       style="fill:#ffff00;fill-opacity:1;fill-rule:evenodd;stroke:#000000;stroke-width:0.44418749;stroke-linejoin:round;stroke-miterlimit:9.41935444;stroke-dasharray:none;stroke-opacity:1;font-size:5.51317685" />
    <path
       transform="matrix(2.7552659,0,0,2.7552659,-1154.8249,-342.92001)"
       clip-path="url(#SVG_CP_1)"
       d="M 526.30787,258.01772 L 526.30787,268.09841 L 527.26784,271.21863 L 526.78785,287.29973 L 525.58788,288.97985 L 523.90792,287.77977 L 521.98797,288.2598 L 520.548,287.29973 L 518.62804,288.73983 L 517.66806,288.49982 L 515.50811,290.65996 L 512.38819,290.17993 L 509.50825,288.73983 L 507.82829,286.57968 L 508.78827,281.05931 L 507.5883,279.61921 L 507.10831,275.53893 L 505.18835,274.09883 L 505.42835,275.53893 L 503.74839,273.61879 L 501.82843,273.85881 L 499.90847,272.89874 L 501.10845,269.2985 L 504.22837,269.2985 L 512.86818,260.41789 L 512.62818,256.57762 L 514.54814,252.73736 L 517.90806,255.37754 L 521.50798,255.13752 L 526.30787,258.01772 z "
       id="Arona"
       style="fill:#ffff00;fill-opacity:1;fill-rule:evenodd;stroke:#000000;stroke-width:0.44418749;stroke-linejoin:round;stroke-miterlimit:9.41935444;stroke-dasharray:none;stroke-opacity:1;font-size:5.51317685" />
    <path
       transform="matrix(2.7552659,0,0,2.7552659,-1154.8249,-342.92001)"
       clip-path="url(#SVG_CP_1)"
       d="M 591.58636,163.21121 L 594.2263,163.93126 L 598.78619,163.21121 L 602.38611,164.89133 L 602.62611,165.85139 L 605.26605,167.53151 L 610.54592,168.97161 L 607.90598,171.8518 L 604.30607,174.01195 L 603.1061,179.53233 L 601.66613,180.73241 L 602.38611,186.25279 L 597.58622,186.25279 L 591.10637,182.41253 L 588.70643,179.0523 L 580.78661,172.57185 L 581.74659,170.17169 L 586.78647,168.73159 L 586.78647,166.33142 L 588.22644,164.65131 L 591.58636,163.21121 z "
       id="Candelaria"
       style="fill:#ffff00;fill-opacity:1;fill-rule:evenodd;stroke:#000000;stroke-width:0.44418749;stroke-linejoin:round;stroke-miterlimit:9.41935444;stroke-dasharray:none;stroke-opacity:1;font-size:5.51317685" />
    <path
       transform="matrix(2.7552659,0,0,2.7552659,-1154.8249,-342.92001)"
       clip-path="url(#SVG_CP_1)"
       d="M 533.02771,224.1754 L 538.30759,222.7353 L 541.18752,227.29561 L 544.30745,228.25568 L 550.06732,238.33637 L 555.58719,242.41665 L 558.94711,249.13711 L 559.90709,250.3372 L 563.987,251.53728 L 565.90695,255.37754 L 570.22685,260.89792 L 567.82691,262.81805 L 567.10693,266.17828 L 564.22699,266.65832 L 563.02702,269.53851 L 561.10706,270.7386 L 560.62707,272.1787 L 559.18711,272.1787 L 557.74714,275.05889 L 556.30717,275.05889 L 555.58719,277.21904 L 553.42724,277.45906 L 553.18725,279.13917 L 553.90723,280.33926 L 551.98727,282.73942 L 549.34733,280.81929 L 538.06759,281.77935 L 537.34761,278.17911 L 535.66765,276.01896 L 535.90764,271.45865 L 537.10762,269.53851 L 536.86762,264.01813 L 537.34761,259.45782 L 534.46768,254.65749 L 534.22768,251.29726 L 532.30773,248.65708 L 532.06773,246.0169 L 534.70767,243.1367 L 533.5077,240.73654 L 534.70767,237.85634 L 534.22768,229.69578 L 532.78772,228.25568 L 533.02771,224.1754 z "
       id="Granadilla"
       style="fill:#ffff00;fill-opacity:1;fill-rule:evenodd;stroke:#000000;stroke-width:0.44418749;stroke-linejoin:round;stroke-miterlimit:9.41935444;stroke-dasharray:none;stroke-opacity:1;font-size:5.51317685" />
    <path
       transform="matrix(2.7552659,0,0,2.7552659,-1154.8249,-342.92001)"
       clip-path="url(#SVG_CP_1)"
       d="M 472.54911,219.37507 L 481.18891,210.49446 L 491.50867,205.93415 L 497.98852,205.2141 L 509.98824,207.13423 L 516.94808,207.13423 L 514.54814,212.41459 L 516.2281,224.41541 L 505.18835,234.49611 L 497.74852,237.85634 L 489.10872,238.8164 L 482.62887,241.21657 L 481.4289,235.69619 L 479.98893,234.01607 L 478.06898,233.77606 L 477.109,230.65584 L 475.90903,229.69578 L 475.42904,227.29561 L 474.46906,227.0556 L 473.26909,225.37548 L 473.74908,222.25527 L 472.54911,219.37507 z "
       id="Guía de Isora"
       style="fill:#ffff00;fill-opacity:1;fill-rule:evenodd;stroke:#000000;stroke-width:0.44418749;stroke-linejoin:round;stroke-miterlimit:9.41935444;stroke-dasharray:none;stroke-opacity:1;font-size:5.51317685" />
    <path
       transform="matrix(2.7552659,0,0,2.7552659,-1154.8249,-342.92001)"
       clip-path="url(#SVG_CP_1)"
       d="M 602.38611,186.25279 L 604.30607,192.25321 L 603.82608,196.5735 L 597.34623,203.29396 L 597.34623,207.13423 L 590.86638,218.65502 L 588.22644,217.69495 L 585.10651,215.05477 L 580.30662,213.13464 L 577.66668,210.97449 L 575.98672,207.85428 L 564.70698,202.81393 L 562.54703,198.0136 L 566.14695,195.1334 L 566.38694,193.45329 L 569.98686,188.89297 L 570.22685,187.21286 L 578.86665,186.97284 L 583.42655,188.41294 L 591.10637,187.69289 L 598.06621,189.85304 L 602.38611,186.25279 z "
       id="Güímar"
       style="fill:#ffff00;fill-opacity:1;fill-rule:evenodd;stroke:#000000;stroke-width:0.44418749;stroke-linejoin:round;stroke-miterlimit:9.41935444;stroke-dasharray:none;stroke-opacity:1;font-size:5.51317685" />
    <path
       transform="matrix(2.7552659,0,0,2.7552659,-1154.8249,-342.92001)"
       clip-path="url(#SVG_CP_1)"
       d="M 532.30773,248.65708 L 534.22768,251.29726 L 534.46768,254.65749 L 537.34761,259.45782 L 536.86762,264.01813 L 537.10762,269.53851 L 535.90764,271.45865 L 535.66765,276.01896 L 537.34761,278.17911 L 538.06759,281.77935 L 530.62777,284.41954 L 528.22782,287.53975 L 526.78785,287.29973 L 527.26784,271.21863 L 526.30787,268.09841 L 526.30787,258.01772 L 526.30787,254.41748 L 531.58774,250.81723 L 532.30773,248.65708 z "
       id="San Miguel de Abona"
       style="fill:#ffff00;fill-opacity:1;fill-rule:evenodd;stroke:#000000;stroke-width:0.44418749;stroke-linejoin:round;stroke-miterlimit:9.41935444;stroke-dasharray:none;stroke-opacity:1;font-size:5.51317685" />
    <path
       transform="matrix(2.7552659,0,0,2.7552659,-1154.8249,-342.92001)"
       clip-path="url(#SVG_CP_1)"
       d="M 533.02771,224.1754 L 532.78772,228.25568 L 534.22768,229.69578 L 534.70767,237.85634 L 533.5077,240.73654 L 534.70767,243.1367 L 532.06773,246.0169 L 532.30773,248.65708 L 531.58774,250.81723 L 526.30787,254.41748 L 526.30787,258.01772 L 521.50798,255.13752 L 517.90806,255.37754 L 514.54814,252.73736 L 513.82815,246.97696 L 517.66806,237.85634 L 519.34803,236.17622 L 521.74797,228.01566 L 527.98783,228.49569 L 532.30773,226.09553 L 533.02771,224.1754 z "
       id="Vilaflor"
       style="fill:#ffff00;fill-opacity:1;fill-rule:evenodd;stroke:#000000;stroke-width:0.44418749;stroke-linejoin:round;stroke-miterlimit:9.41935444;stroke-dasharray:none;stroke-opacity:1;font-size:5.51317685" />
  </g>
  <!-- <g
     id="g12767"
     style="font-size:15.19026816">
    <path
       style="fill:#de8787;fill-opacity:0.50196078;fill-rule:evenodd;stroke:#000000;stroke-width:0.44418749;stroke-linejoin:round;stroke-miterlimit:9.41935444;stroke-dasharray:none;stroke-opacity:1;font-size:5.51317685"
       id="path4324"
       d="M 562.54703,198.0136 L 564.70698,202.81393 L 575.98672,207.85428 L 577.66668,210.97449 L 580.30662,213.13464 L 585.10651,215.05477 L 588.22644,217.69495 L 590.86638,218.65502 L 590.38639,221.53522 L 586.06649,227.53563 L 587.02647,229.45576 L 586.30648,231.13588 L 585.10651,229.21574 L 581.50659,227.29561 L 580.78661,224.65543 L 576.7067,222.97532 L 572.6268,217.45494 L 555.58719,201.85386 L 560.14709,197.05354 L 561.34706,196.81352 L 562.54703,198.0136 z "
       clip-path="url(#SVG_CP_1)"
       transform="matrix(2.7552659,0,0,2.7552659,-1154.8247,-342.92038)" />
    <path
       style="fill:#de8787;fill-opacity:0.50196078;fill-rule:evenodd;stroke:#000000;stroke-width:0.44418749;stroke-linejoin:round;stroke-miterlimit:9.41935444;stroke-dasharray:none;stroke-opacity:1;font-size:5.51317685"
       id="path4326"
       d="M 521.74797,228.01566 L 519.34803,236.17622 L 517.66806,237.85634 L 513.82815,246.97696 L 514.54814,252.73736 L 512.62818,256.57762 L 512.86818,260.41789 L 504.22837,269.2985 L 501.10845,269.2985 L 500.14847,263.5381 L 499.18849,261.85799 L 494.3886,258.49776 L 494.6286,257.05766 L 493.66862,257.29767 L 493.18863,255.61756 L 491.50867,255.61756 L 491.74866,254.41748 L 490.3087,254.41748 L 482.62887,241.21657 L 489.10872,238.8164 L 497.74852,237.85634 L 505.18835,234.49611 L 516.2281,224.41541 L 519.58802,226.09553 L 521.74797,228.01566 z "
       clip-path="url(#SVG_CP_1)"
       transform="matrix(2.7552659,0,0,2.7552659,-1154.8247,-342.92038)" />
    <path
       style="fill:#de8787;fill-opacity:0.50196078;fill-rule:evenodd;stroke:#000000;stroke-width:0.44418749;stroke-linejoin:round;stroke-miterlimit:9.41935444;stroke-dasharray:none;stroke-opacity:1;font-size:5.51317685"
       id="path4328"
       d="M 581.74659,170.17169 L 580.78661,172.57185 L 588.70643,179.0523 L 591.10637,182.41253 L 597.58622,186.25279 L 602.38611,186.25279 L 598.06621,189.85304 L 591.10637,187.69289 L 583.42655,188.41294 L 578.86665,186.97284 L 570.22685,187.21286 L 570.94684,183.61261 L 575.02674,181.21245 L 575.98672,175.93208 L 577.66668,172.81187 L 581.74659,170.17169 z "
       clip-path="url(#SVG_CP_1)"
       transform="matrix(2.7552659,0,0,2.7552659,-1154.8247,-342.92038)" />
    <path
       style="fill:#de8787;fill-opacity:0.50196078;fill-rule:evenodd;stroke:#000000;stroke-width:0.44418749;stroke-linejoin:round;stroke-miterlimit:9.41935444;stroke-dasharray:none;stroke-opacity:1;font-size:5.51317685"
       id="path4330"
       d="M 538.30759,222.7353 L 539.98755,222.25527 L 544.06746,217.45494 L 548.86735,215.05477 L 551.26729,212.89462 L 552.22727,209.53439 L 553.66723,207.37424 L 553.18725,203.29396 L 555.58719,201.85386 L 572.6268,217.45494 L 576.7067,222.97532 L 580.78661,224.65543 L 581.50659,227.29561 L 585.10651,229.21574 L 586.30648,231.13588 L 585.10651,232.57598 L 585.5865,234.97614 L 584.62652,237.13629 L 585.82649,238.8164 L 585.3465,240.01649 L 584.14653,240.01649 L 583.18655,242.65667 L 585.5865,244.5768 L 583.42655,247.21698 L 581.98658,246.73695 L 581.0266,247.457 L 581.0266,249.13711 L 579.10665,249.13711 L 578.38666,251.53728 L 575.26674,253.45741 L 575.02674,256.33761 L 572.86679,257.05766 L 570.22685,260.89792 L 565.90695,255.37754 L 563.987,251.53728 L 559.90709,250.3372 L 558.94711,249.13711 L 555.58719,242.41665 L 550.06732,238.33637 L 544.30745,228.25568 L 541.18752,227.29561 L 538.30759,222.7353 z "
       clip-path="url(#SVG_CP_1)"
       transform="matrix(2.7552659,0,0,2.7552659,-1154.8247,-342.92038)" />
    <path
       style="fill:#de8787;fill-opacity:0.50196078;fill-rule:evenodd;stroke:#000000;stroke-width:0.44418749;stroke-linejoin:round;stroke-miterlimit:9.41935444;stroke-dasharray:none;stroke-opacity:1;font-size:5.51317685"
       id="path4332"
       d="M 526.30787,258.01772 L 526.30787,268.09841 L 527.26784,271.21863 L 526.78785,287.29973 L 525.58788,288.97985 L 523.90792,287.77977 L 521.98797,288.2598 L 520.548,287.29973 L 518.62804,288.73983 L 517.66806,288.49982 L 515.50811,290.65996 L 512.38819,290.17993 L 509.50825,288.73983 L 507.82829,286.57968 L 508.78827,281.05931 L 507.5883,279.61921 L 507.10831,275.53893 L 505.18835,274.09883 L 505.42835,275.53893 L 503.74839,273.61879 L 501.82843,273.85881 L 499.90847,272.89874 L 501.10845,269.2985 L 504.22837,269.2985 L 512.86818,260.41789 L 512.62818,256.57762 L 514.54814,252.73736 L 517.90806,255.37754 L 521.50798,255.13752 L 526.30787,258.01772 z "
       clip-path="url(#SVG_CP_1)"
       transform="matrix(2.7552659,0,0,2.7552659,-1154.8247,-342.92038)" />
    <path
       style="fill:#de8787;fill-opacity:0.50196078;fill-rule:evenodd;stroke:#000000;stroke-width:0.44418749;stroke-linejoin:round;stroke-miterlimit:9.41935444;stroke-dasharray:none;stroke-opacity:1;font-size:5.51317685"
       id="path4334"
       d="M 591.58636,163.21121 L 594.2263,163.93126 L 598.78619,163.21121 L 602.38611,164.89133 L 602.62611,165.85139 L 605.26605,167.53151 L 610.54592,168.97161 L 607.90598,171.8518 L 604.30607,174.01195 L 603.1061,179.53233 L 601.66613,180.73241 L 602.38611,186.25279 L 597.58622,186.25279 L 591.10637,182.41253 L 588.70643,179.0523 L 580.78661,172.57185 L 581.74659,170.17169 L 586.78647,168.73159 L 586.78647,166.33142 L 588.22644,164.65131 L 591.58636,163.21121 z "
       clip-path="url(#SVG_CP_1)"
       transform="matrix(2.7552659,0,0,2.7552659,-1154.8247,-342.92038)" />
    <path
       style="fill:#de8787;fill-opacity:0.50196078;fill-rule:evenodd;stroke:#000000;stroke-width:0.44418749;stroke-linejoin:round;stroke-miterlimit:9.41935444;stroke-dasharray:none;stroke-opacity:1;font-size:5.51317685"
       id="path4336"
       d="M 533.02771,224.1754 L 538.30759,222.7353 L 541.18752,227.29561 L 544.30745,228.25568 L 550.06732,238.33637 L 555.58719,242.41665 L 558.94711,249.13711 L 559.90709,250.3372 L 563.987,251.53728 L 565.90695,255.37754 L 570.22685,260.89792 L 567.82691,262.81805 L 567.10693,266.17828 L 564.22699,266.65832 L 563.02702,269.53851 L 561.10706,270.7386 L 560.62707,272.1787 L 559.18711,272.1787 L 557.74714,275.05889 L 556.30717,275.05889 L 555.58719,277.21904 L 553.42724,277.45906 L 553.18725,279.13917 L 553.90723,280.33926 L 551.98727,282.73942 L 549.34733,280.81929 L 538.06759,281.77935 L 537.34761,278.17911 L 535.66765,276.01896 L 535.90764,271.45865 L 537.10762,269.53851 L 536.86762,264.01813 L 537.34761,259.45782 L 534.46768,254.65749 L 534.22768,251.29726 L 532.30773,248.65708 L 532.06773,246.0169 L 534.70767,243.1367 L 533.5077,240.73654 L 534.70767,237.85634 L 534.22768,229.69578 L 532.78772,228.25568 L 533.02771,224.1754 z "
       clip-path="url(#SVG_CP_1)"
       transform="matrix(2.7552659,0,0,2.7552659,-1154.8247,-342.92038)" />
    <path
       style="fill:#de8787;fill-opacity:0.50196078;fill-rule:evenodd;stroke:#000000;stroke-width:0.44418749;stroke-linejoin:round;stroke-miterlimit:9.41935444;stroke-dasharray:none;stroke-opacity:1;font-size:5.51317685"
       id="path4338"
       d="M 472.54911,219.37507 L 481.18891,210.49446 L 491.50867,205.93415 L 497.98852,205.2141 L 509.98824,207.13423 L 516.94808,207.13423 L 514.54814,212.41459 L 516.2281,224.41541 L 505.18835,234.49611 L 497.74852,237.85634 L 489.10872,238.8164 L 482.62887,241.21657 L 481.4289,235.69619 L 479.98893,234.01607 L 478.06898,233.77606 L 477.109,230.65584 L 475.90903,229.69578 L 475.42904,227.29561 L 474.46906,227.0556 L 473.26909,225.37548 L 473.74908,222.25527 L 472.54911,219.37507 z "
       clip-path="url(#SVG_CP_1)"
       transform="matrix(2.7552659,0,0,2.7552659,-1154.8247,-342.92038)" />
    <path
       style="fill:#de8787;fill-opacity:0.50196078;fill-rule:evenodd;stroke:#000000;stroke-width:0.44418749;stroke-linejoin:round;stroke-miterlimit:9.41935444;stroke-dasharray:none;stroke-opacity:1;font-size:5.51317685"
       id="path4340"
       d="M 602.38611,186.25279 L 604.30607,192.25321 L 603.82608,196.5735 L 597.34623,203.29396 L 597.34623,207.13423 L 590.86638,218.65502 L 588.22644,217.69495 L 585.10651,215.05477 L 580.30662,213.13464 L 577.66668,210.97449 L 575.98672,207.85428 L 564.70698,202.81393 L 562.54703,198.0136 L 566.14695,195.1334 L 566.38694,193.45329 L 569.98686,188.89297 L 570.22685,187.21286 L 578.86665,186.97284 L 583.42655,188.41294 L 591.10637,187.69289 L 598.06621,189.85304 L 602.38611,186.25279 z "
       clip-path="url(#SVG_CP_1)"
       transform="matrix(2.7552659,0,0,2.7552659,-1154.8247,-342.92038)" />
    <path
       style="fill:#de8787;fill-opacity:0.50196078;fill-rule:evenodd;stroke:#000000;stroke-width:0.44418749;stroke-linejoin:round;stroke-miterlimit:9.41935444;stroke-dasharray:none;stroke-opacity:1;font-size:5.51317685"
       id="path4342"
       d="M 532.30773,248.65708 L 534.22768,251.29726 L 534.46768,254.65749 L 537.34761,259.45782 L 536.86762,264.01813 L 537.10762,269.53851 L 535.90764,271.45865 L 535.66765,276.01896 L 537.34761,278.17911 L 538.06759,281.77935 L 530.62777,284.41954 L 528.22782,287.53975 L 526.78785,287.29973 L 527.26784,271.21863 L 526.30787,268.09841 L 526.30787,258.01772 L 526.30787,254.41748 L 531.58774,250.81723 L 532.30773,248.65708 z "
       clip-path="url(#SVG_CP_1)"
       transform="matrix(2.7552659,0,0,2.7552659,-1154.8247,-342.92038)" />
    <path
       style="fill:#de8787;fill-opacity:0.50196078;fill-rule:evenodd;stroke:#000000;stroke-width:0.44418749;stroke-linejoin:round;stroke-miterlimit:9.41935444;stroke-dasharray:none;stroke-opacity:1;font-size:5.51317685"
       id="path4344"
       d="M 533.02771,224.1754 L 532.78772,228.25568 L 534.22768,229.69578 L 534.70767,237.85634 L 533.5077,240.73654 L 534.70767,243.1367 L 532.06773,246.0169 L 532.30773,248.65708 L 531.58774,250.81723 L 526.30787,254.41748 L 526.30787,258.01772 L 521.50798,255.13752 L 517.90806,255.37754 L 514.54814,252.73736 L 513.82815,246.97696 L 517.66806,237.85634 L 519.34803,236.17622 L 521.74797,228.01566 L 527.98783,228.49569 L 532.30773,226.09553 L 533.02771,224.1754 z "
       clip-path="url(#SVG_CP_1)"
       transform="matrix(2.7552659,0,0,2.7552659,-1154.8247,-342.92038)" />
    <path
       style="fill:#de8787;fill-opacity:0.50196078;fill-rule:evenodd;stroke:#000000;stroke-width:0.44418749;stroke-linejoin:round;stroke-miterlimit:9.41935444;stroke-dasharray:none;stroke-opacity:1;font-size:5.51317685"
       id="path5508"
       d="M 482.14888,192.73324 L 485.50881,193.21327 L 499.18849,200.8938 L 510.70823,206.17416 L 516.94808,207.13423 L 509.98824,207.13423 L 497.98852,205.2141 L 491.50867,205.93415 L 481.18891,210.49446 L 472.54911,219.37507 L 471.82912,218.89504 L 472.54911,218.17499 L 472.06912,216.01484 L 471.10914,215.29479 L 472.06912,215.05477 L 471.82912,213.61467 L 473.02909,211.69454 L 472.54911,207.85428 L 469.90917,206.41418 L 470.14916,205.2141 L 469.42918,204.97408 L 471.10914,202.09388 L 474.46906,200.41377 L 474.94905,199.4537 L 478.06898,199.21368 L 476.86901,194.65337 L 479.02896,192.49322 L 480.70892,193.45329 L 482.14888,192.73324 z "
       clip-path="url(#SVG_CP_1)"
       transform="matrix(2.7552659,0,0,2.7552659,-1154.8247,-342.92038)" />
  </g>
  <g
     id="g13765"
     transform="translate(62.28011,154.18132)"
     style="font-size:15.19026816">
    <path
       style="opacity:1;fill:#9fd8d7;fill-opacity:0.50196078;fill-rule:evenodd;stroke:#000000;stroke-width:0.44418749;stroke-linejoin:round;stroke-miterlimit:9.41935444;stroke-dasharray:none;stroke-opacity:1;font-size:5.51317685"
       id="path5488"
       d="M 476.14902,168.25156 L 474.94905,175.45205 L 474.94905,185.53274 L 475.66903,189.13299 L 479.02896,192.49322 L 476.86901,194.65337 L 478.06898,199.21368 L 474.94905,199.4537 L 474.46906,200.41377 L 471.10914,202.09388 L 469.42918,204.97408 L 467.74922,204.73406 L 466.54924,201.85386 L 467.02923,200.41377 L 464.38929,196.81352 L 462.22934,195.85345 L 461.74935,192.49322 L 458.14944,189.37301 L 457.66945,186.97284 L 455.5095,184.81269 L 452.38957,183.3726 L 451.1896,183.61261 L 450.22962,180.97243 L 451.90958,177.6122 L 455.5095,176.41212 L 457.66945,177.13217 L 461.02937,175.21203 L 461.74935,175.93208 L 464.1493,174.97202 L 465.10928,173.2919 L 467.74922,173.2919 L 467.74922,172.09182 L 471.10914,169.69166 L 473.02909,169.93167 L 473.26909,168.97161 L 476.14902,168.25156 z "
       clip-path="url(#SVG_CP_1)"
       transform="matrix(2.7552659,0,0,2.7552659,-1217.105,-497.10123)" />
    <path
       style="opacity:1;fill:#9fd8d7;fill-opacity:0.50196078;fill-rule:evenodd;stroke:#000000;stroke-width:0.44418749;stroke-linejoin:round;stroke-miterlimit:9.41935444;stroke-dasharray:none;stroke-opacity:1;font-size:5.51317685"
       id="path5490"
       d="M 501.10845,172.33184 L 500.86845,180.25238 L 499.18849,182.89256 L 502.30842,195.85345 L 506.14833,201.61385 L 510.70823,206.17416 L 499.18849,200.8938 L 495.34858,196.33349 L 493.66862,191.77317 L 492.70864,187.21286 L 493.90861,179.29232 L 493.42862,176.1721 L 490.0687,176.1721 L 489.34872,177.6122 L 486.70878,178.57227 L 485.26881,176.65213 L 491.98866,174.01195 L 492.70864,174.97202 L 494.14861,173.77194 L 497.74852,175.21203 L 501.10845,172.33184 z "
       clip-path="url(#SVG_CP_1)"
       transform="matrix(2.7552659,0,0,2.7552659,-1217.105,-497.10123)" />
    <path
       style="opacity:1;fill:#9fd8d7;fill-opacity:0.50196078;fill-rule:evenodd;stroke:#000000;stroke-width:0.44418749;stroke-linejoin:round;stroke-miterlimit:9.41935444;stroke-dasharray:none;stroke-opacity:1;font-size:5.51317685"
       id="path5492"
       d="M 515.9881,169.21162 L 518.14805,168.49157 L 518.86804,165.85139 L 519.58802,166.81146 L 520.308,166.33142 L 521.50798,166.81146 L 523.18794,166.33142 L 524.6279,168.01154 L 523.66793,170.17169 L 525.58788,173.77194 L 525.58788,175.45205 L 529.1878,180.01236 L 530.38777,184.81269 L 536.38763,195.61344 L 527.26784,197.53357 L 529.1878,195.61344 L 529.42779,192.97325 L 526.54786,186.25279 L 523.18794,182.89256 L 521.74797,177.37218 L 520.06801,175.93208 L 515.9881,169.21162 z "
       clip-path="url(#SVG_CP_1)"
       transform="matrix(2.7552659,0,0,2.7552659,-1217.105,-497.10123)" />
    <path
       style="opacity:1;fill:#9fd8d7;fill-opacity:0.50196078;fill-rule:evenodd;stroke:#000000;stroke-width:0.44418749;stroke-linejoin:round;stroke-miterlimit:9.41935444;stroke-dasharray:none;stroke-opacity:1;font-size:5.51317685"
       id="path5494"
       d="M 515.9881,169.21162 L 520.06801,175.93208 L 521.74797,177.37218 L 523.18794,182.89256 L 526.54786,186.25279 L 529.42779,192.97325 L 529.1878,195.61344 L 527.26784,197.53357 L 519.82802,199.4537 L 516.94808,207.13423 L 510.70823,206.17416 L 506.14833,201.61385 L 502.30842,195.85345 L 499.18849,182.89256 L 500.86845,180.25238 L 501.10845,172.33184 L 502.78841,171.8518 L 503.2684,173.2919 L 504.46837,173.53192 L 506.38832,170.17169 L 508.06829,171.37177 L 511.42821,171.37177 L 512.86818,170.41171 L 513.34816,167.77152 L 513.82815,168.73159 L 515.9881,169.21162 z "
       clip-path="url(#SVG_CP_1)"
       transform="matrix(2.7552659,0,0,2.7552659,-1217.105,-497.10123)" />
    <path
       style="opacity:1;fill:#9fd8d7;fill-opacity:0.50196078;fill-rule:evenodd;stroke:#000000;stroke-width:0.44418749;stroke-linejoin:round;stroke-miterlimit:9.41935444;stroke-dasharray:none;stroke-opacity:1;font-size:5.51317685"
       id="path5496"
       d="M 578.62666,146.89009 L 585.5865,152.41047 L 586.30648,154.3306 L 589.18642,157.45081 L 591.34637,161.77111 L 591.58636,163.21121 L 588.22644,164.65131 L 589.18642,162.73118 L 586.06649,159.13093 L 582.70657,158.41088 L 573.34678,153.85057 L 574.54675,152.17045 L 573.58678,150.25032 L 575.26674,150.0103 L 575.50673,148.81022 L 578.14667,149.05024 L 578.62666,146.89009 z "
       clip-path="url(#SVG_CP_1)"
       transform="matrix(2.7552659,0,0,2.7552659,-1217.105,-497.10123)" />
    <path
       style="opacity:1;fill:#9fd8d7;fill-opacity:0.50196078;fill-rule:evenodd;stroke:#000000;stroke-width:0.44418749;stroke-linejoin:round;stroke-miterlimit:9.41935444;stroke-dasharray:none;stroke-opacity:1;font-size:5.51317685"
       id="path5498"
       d="M 559.90709,161.77111 L 565.42696,159.37095 L 564.46699,161.5311 L 563.747,163.69124 L 569.50687,169.21162 L 572.6268,170.89174 L 575.98672,175.93208 L 575.02674,181.21245 L 570.94684,183.61261 L 570.22685,187.21286 L 569.98686,188.89297 L 566.38694,193.45329 L 566.14695,195.1334 L 562.54703,198.0136 L 561.34706,196.81352 L 560.14709,197.05354 L 555.58719,201.85386 L 553.18725,203.29396 L 553.66723,207.37424 L 552.22727,209.53439 L 551.26729,212.89462 L 548.86735,215.05477 L 544.06746,217.45494 L 539.98755,222.25527 L 538.30759,222.7353 L 533.02771,224.1754 L 532.30773,226.09553 L 527.98783,228.49569 L 521.74797,228.01566 L 519.58802,226.09553 L 516.2281,224.41541 L 514.54814,212.41459 L 516.94808,207.13423 L 519.82802,199.4537 L 527.26784,197.53357 L 536.38763,195.61344 L 540.70753,193.45329 L 541.42752,200.17375 L 547.90737,198.49363 L 550.06732,194.65337 L 551.0273,184.09264 L 549.10734,172.57185 L 550.54731,169.45164 L 551.50728,167.77152 L 555.58719,168.01154 L 557.02716,165.37136 L 560.62707,164.65131 L 559.90709,161.77111 z "
       clip-path="url(#SVG_CP_1)"
       transform="matrix(2.7552659,0,0,2.7552659,-1217.105,-497.10123)" />
    <path
       style="opacity:1;fill:#9fd8d7;fill-opacity:0.50196078;fill-rule:evenodd;stroke:#000000;stroke-width:0.44418749;stroke-linejoin:round;stroke-miterlimit:9.41935444;stroke-dasharray:none;stroke-opacity:1;font-size:5.51317685"
       id="path5500"
       d="M 546.94739,164.41129 L 548.38736,162.97119 L 548.86735,163.69124 L 550.06732,162.97119 L 551.26729,161.29108 L 553.90723,161.5311 L 554.62721,160.81105 L 555.1072,161.5311 L 559.90709,161.77111 L 560.62707,164.65131 L 557.02716,165.37136 L 555.58719,168.01154 L 551.50728,167.77152 L 550.54731,169.45164 L 548.62735,168.97161 L 546.94739,164.41129 z "
       clip-path="url(#SVG_CP_1)"
       transform="matrix(2.7552659,0,0,2.7552659,-1217.105,-497.10123)" />
    <path
       style="opacity:1;fill:#9fd8d7;fill-opacity:0.50196078;fill-rule:evenodd;stroke:#000000;stroke-width:0.44418749;stroke-linejoin:round;stroke-miterlimit:9.41935444;stroke-dasharray:none;stroke-opacity:1;font-size:5.51317685"
       id="path5502"
       d="M 532.30773,168.01154 L 538.30759,168.49157 L 539.74756,166.57144 L 540.70753,167.53151 L 542.38749,167.29149 L 544.78744,165.37136 L 546.22741,165.61138 L 546.94739,164.41129 L 548.62735,168.97161 L 550.54731,169.45164 L 549.10734,172.57185 L 551.0273,184.09264 L 550.06732,194.65337 L 547.90737,198.49363 L 541.42752,200.17375 L 540.70753,193.45329 L 532.30773,176.89215 L 531.58774,170.17169 L 532.30773,168.01154 z "
       clip-path="url(#SVG_CP_1)"
       transform="matrix(2.7552659,0,0,2.7552659,-1217.105,-497.10123)" />
    <path
       style="opacity:1;fill:#9fd8d7;fill-opacity:0.50196078;fill-rule:evenodd;stroke:#000000;stroke-width:0.44418749;stroke-linejoin:round;stroke-miterlimit:9.41935444;stroke-dasharray:none;stroke-opacity:1;font-size:5.51317685"
       id="path5504"
       d="M 524.6279,168.01154 L 527.02785,167.05147 L 528.9478,168.49157 L 532.30773,168.01154 L 531.58774,170.17169 L 532.30773,176.89215 L 540.70753,193.45329 L 536.38763,195.61344 L 530.38777,184.81269 L 529.1878,180.01236 L 525.58788,175.45205 L 525.58788,173.77194 L 523.66793,170.17169 L 524.6279,168.01154 z "
       clip-path="url(#SVG_CP_1)"
       transform="matrix(2.7552659,0,0,2.7552659,-1217.105,-497.10123)" />
    <path
       style="opacity:1;fill:#9fd8d7;fill-opacity:0.50196078;fill-rule:evenodd;stroke:#000000;stroke-width:0.44418749;stroke-linejoin:round;stroke-miterlimit:9.41935444;stroke-dasharray:none;stroke-opacity:1;font-size:5.51317685"
       id="path5506"
       d="M 569.74686,155.53068 L 571.90681,159.13093 L 572.86679,158.6509 L 574.54675,159.37095 L 576.7067,161.77111 L 577.90668,165.37136 L 580.78661,168.01154 L 581.74659,170.17169 L 577.66668,172.81187 L 575.98672,175.93208 L 572.6268,170.89174 L 569.50687,169.21162 L 563.747,163.69124 L 564.46699,161.5311 L 565.42696,159.37095 L 567.10693,155.29067 L 568.0669,154.81063 L 569.74686,155.53068 z "
       clip-path="url(#SVG_CP_1)"
       transform="matrix(2.7552659,0,0,2.7552659,-1217.105,-497.10123)" />
    <path
       style="opacity:1;fill:#9fd8d7;fill-opacity:0.50196078;fill-rule:evenodd;stroke:#000000;stroke-width:0.44418749;stroke-linejoin:round;stroke-miterlimit:9.41935444;stroke-dasharray:none;stroke-opacity:1;font-size:5.51317685"
       id="path5510"
       d="M 585.5865,140.40964 L 588.70643,143.52986 L 591.10637,148.09017 L 592.06635,152.65049 L 594.46629,158.17086 L 591.82636,161.77111 L 591.58636,163.21121 L 591.34637,161.77111 L 589.18642,157.45081 L 586.30648,154.3306 L 585.5865,152.41047 L 578.62666,146.89009 L 578.38666,145.93002 L 580.30662,144.48992 L 579.58664,143.52986 L 581.2666,144.48992 L 581.74659,142.56979 L 585.5865,140.40964 z "
       clip-path="url(#SVG_CP_1)"
       transform="matrix(2.7552659,0,0,2.7552659,-1217.105,-497.10123)" />
    <path
       style="opacity:1;fill:#9fd8d7;fill-opacity:0.50196078;fill-rule:evenodd;stroke:#000000;stroke-width:0.44418749;stroke-linejoin:round;stroke-miterlimit:9.41935444;stroke-dasharray:none;stroke-opacity:1;font-size:5.51317685"
       id="path5512"
       d="M 485.26881,176.65213 L 485.9888,180.73241 L 481.66889,190.33307 L 482.14888,192.73324 L 480.70892,193.45329 L 479.02896,192.49322 L 475.66903,189.13299 L 474.94905,185.53274 L 474.94905,175.45205 L 476.14902,168.25156 L 477.34899,168.49157 L 477.34899,169.93167 L 481.18891,172.81187 L 482.62887,173.2919 L 483.10886,172.33184 L 485.26881,176.65213 z "
       clip-path="url(#SVG_CP_1)"
       transform="matrix(2.7552659,0,0,2.7552659,-1217.105,-497.10123)" />
    <path
       style="opacity:1;fill:#9fd8d7;fill-opacity:0.50196078;fill-rule:evenodd;stroke:#000000;stroke-width:0.44418749;stroke-linejoin:round;stroke-miterlimit:9.41935444;stroke-dasharray:none;stroke-opacity:1;font-size:5.51317685"
       id="path5514"
       d="M 591.10637,128.1688 L 593.98631,133.44917 L 600.46616,139.20956 L 601.18614,145.44999 L 599.98617,145.69001 L 598.5462,151.93044 L 597.58622,151.93044 L 597.82622,153.61055 L 594.46629,158.17086 L 592.06635,152.65049 L 591.10637,148.09017 L 588.70643,143.52986 L 585.5865,140.40964 L 587.02647,136.56938 L 586.78647,135.84933 L 587.98644,134.16922 L 588.22644,131.049 L 591.10637,128.1688 z "
       clip-path="url(#SVG_CP_1)"
       transform="matrix(2.7552659,0,0,2.7552659,-1217.105,-497.10123)" />
    <path
       style="opacity:1;fill:#9fd8d7;fill-opacity:0.50196078;fill-rule:evenodd;stroke:#000000;stroke-width:0.44418749;stroke-linejoin:round;stroke-miterlimit:9.41935444;stroke-dasharray:none;stroke-opacity:1;font-size:5.51317685"
       id="path5516"
       d="M 485.26881,176.65213 L 486.70878,178.57227 L 489.34872,177.6122 L 490.0687,176.1721 L 493.42862,176.1721 L 493.90861,179.29232 L 492.70864,187.21286 L 493.66862,191.77317 L 495.34858,196.33349 L 499.18849,200.8938 L 485.50881,193.21327 L 482.14888,192.73324 L 481.66889,190.33307 L 485.9888,180.73241 L 485.26881,176.65213 z "
       clip-path="url(#SVG_CP_1)"
       transform="matrix(2.7552659,0,0,2.7552659,-1217.105,-497.10123)" />
    <path
       style="opacity:1;fill:#9fd8d7;fill-opacity:0.50196078;fill-rule:evenodd;stroke:#000000;stroke-width:0.44418749;stroke-linejoin:round;stroke-miterlimit:9.41935444;stroke-dasharray:none;stroke-opacity:1;font-size:5.51317685"
       id="path5518"
       d="M 573.34678,153.85057 L 582.70657,158.41088 L 586.06649,159.13093 L 589.18642,162.73118 L 588.22644,164.65131 L 586.78647,166.33142 L 586.78647,168.73159 L 581.74659,170.17169 L 580.78661,168.01154 L 577.90668,165.37136 L 576.7067,161.77111 L 574.54675,159.37095 L 572.86679,158.6509 L 571.90681,159.13093 L 569.74686,155.53068 L 573.34678,153.85057 z "
       clip-path="url(#SVG_CP_1)"
       transform="matrix(2.7552659,0,0,2.7552659,-1217.105,-497.10123)" />
  </g>
  <g
     id="g5526"
     style="opacity:0.5;fill:#efda6e;fill-opacity:1;font-size:18.92782925"
     transform="matrix(0.8025362,0,0,0.8025362,76.772933,40.797124)">
    <path
       style="fill:#efda6e;fill-opacity:1;fill-rule:evenodd;stroke:#000000;stroke-width:0.44418749;stroke-linejoin:round;stroke-miterlimit:9.41935444;stroke-dasharray:none;stroke-opacity:1;font-size:5.51317681"
       id="path5528"
       d="M 598.5462,151.93044 L 602.38611,146.17004 L 608.86596,148.09017 L 611.5059,150.49034 L 612.70587,150.97037 L 612.70587,152.8905 L 611.26591,155.05065 L 608.62597,158.6509 L 611.26591,161.77111 L 615.34581,162.25114 L 615.34581,161.29108 L 618.70574,164.65131 L 615.10582,167.77152 L 612.46588,167.29149 L 611.26591,168.73159 L 610.54592,168.97161 L 605.26605,167.53151 L 602.62611,165.85139 L 602.38611,164.89133 L 598.78619,163.21121 L 594.2263,163.93126 L 591.58636,163.21121 L 591.82636,161.77111 L 594.46629,158.17086 L 597.82622,153.61055 L 597.58622,151.93044 L 598.5462,151.93044 z "
       clip-path="url(#SVG_CP_1)"
       transform="matrix(3.4331983,0,0,3.4331983,-1534.6321,-478.13063)" />
    <path
       style="fill:#efda6e;fill-opacity:1;fill-rule:evenodd;stroke:#000000;stroke-width:0.44418749;stroke-linejoin:round;stroke-miterlimit:9.41935444;stroke-dasharray:none;stroke-opacity:1;font-size:5.51317681"
       id="path5530"
       d="M 591.10637,128.1688 L 594.46629,126.24867 L 594.70629,124.80857 L 598.5462,122.16839 L 603.34609,122.64842 L 606.22602,121.44834 L 606.46602,120.48828 L 611.7459,119.04818 L 612.70587,114.24785 L 615.10582,112.80775 L 616.30579,113.04776 L 617.02577,114.9679 L 619.42572,114.00783 L 622.06566,115.68795 L 623.26563,114.9679 L 624.22561,115.20791 L 625.42558,113.28778 L 628.30551,114.72788 L 629.98548,123.84851 L 629.50549,125.76864 L 626.86555,126.96872 L 625.18559,133.44917 L 628.7855,136.32936 L 629.0255,137.52945 L 625.90557,147.61014 L 623.74562,149.29025 L 622.78564,154.81063 L 620.62569,155.53068 L 620.62569,153.61055 L 613.90585,152.17045 L 612.70587,150.97037 L 611.5059,150.49034 L 608.86596,148.09017 L 602.38611,146.17004 L 598.5462,151.93044 L 599.98617,145.69001 L 601.18614,145.44999 L 600.46616,139.20956 L 593.98631,133.44917 L 591.10637,128.1688 z M 605.98603,139.68959 L 611.5059,135.3693 L 614.62583,133.20915 L 615.8258,134.64925 L 619.18572,133.20915 L 621.10568,131.049 L 623.26563,126.7287 L 619.90571,125.04859 L 611.7459,122.64842 L 609.82594,122.88844 L 607.186,127.92879 L 601.66613,131.28902 L 601.18614,136.32936 L 605.98603,139.68959 z "
       clip-path="url(#SVG_CP_1)"
       transform="matrix(3.4331983,0,0,3.4331983,-1534.6321,-478.13063)" />
    <path
       id="path5532"
       d="M 730.42045,-106.48691 L 727.95284,-104.0193 L 729.56215,-103.161 L 730.42045,-102.40999 L 730.42045,-106.48691 z M 731.27875,-99.94238 L 723.01762,-96.61647 L 717.22409,-96.61647 L 706.49535,-87.497037 L 669.48118,-76.01728 L 652.10061,-83.420114 L 638.15325,-81.810802 L 624.09859,-89.964648 L 622.48928,-84.278413 L 628.2828,-52.950479 L 626.5662,-46.298657 L 617.55406,-42.221734 L 611.76053,-20.013233 L 624.09859,-10.0355 L 624.95689,-5.958577 L 614.22814,28.695268 L 606.82531,34.381503 L 603.4994,53.371381 L 596.09657,55.838992 L 596.09657,49.294458 L 573.02977,44.251948 L 568.95284,40.175025 L 568.95284,46.719559 L 564.01762,54.229681 L 554.89819,66.567737 L 564.01762,77.296482 L 577.96499,78.905793 L 577.96499,75.579883 L 589.55203,87.166927 L 599.42248,78.905793 L 604.3577,70.64466 L 618.30507,59.164903 L 625.7079,47.577859 L 644.69778,40.175025 L 647.16539,26.978669 L 648.02369,23.652758 L 657.03584,8.0960785 L 667.76458,3.9118681 L 666.90628,2.3025564 L 673.5581,3.0535685 L 675.16741,-0.16505489 L 688.36377,-5.1002775 L 680.96094,1.4442568 L 695.01559,-5.958577 L 704.02774,-16.687322 L 712.28887,-17.545621 L 716.36579,-23.231856 L 732.02976,-30.63469 L 744.36782,-28.167079 L 748.55203,-39.754123 L 752.62895,-43.080034 L 760.89008,-39.754123 L 757.56417,-44.689345 L 759.28077,-55.41809 L 766.68361,-61.962624 L 766.68361,-69.365458 L 761.74838,-71.833069 L 762.4994,-78.484891 L 758.42247,-83.420114 L 753.48725,-84.278413 L 752.62895,-89.964648 L 755.09656,-91.681247 L 731.27875,-99.94238 z "
       style="fill:#efda6e;fill-opacity:1;stroke:#000000;stroke-width:1.52498376;stroke-linecap:square;stroke-linejoin:round;stroke-miterlimit:9.41935444;stroke-dasharray:none;stroke-opacity:1;font-size:18.92782925" />
    <path
       style="fill:#efda6e;fill-opacity:1;fill-rule:evenodd;stroke:#000000;stroke-width:0.44418749;stroke-linejoin:round;stroke-miterlimit:9.41935444;stroke-dasharray:none;stroke-opacity:1;font-size:5.51317681"
       id="path5534"
       d="M 605.98603,139.68959 L 601.18614,136.32936 L 601.66613,131.28902 L 607.186,127.92879 L 609.82594,122.88844 L 611.7459,122.64842 L 619.90571,125.04859 L 623.26563,126.7287 L 621.10568,131.049 L 619.18572,133.20915 L 615.8258,134.64925 L 614.62583,133.20915 L 611.5059,135.3693 L 605.98603,139.68959 z "
       clip-path="url(#SVG_CP_1)"
       transform="matrix(3.4331983,0,0,3.4331983,-1534.6321,-478.13063)" />
  </g>
  <g
     inkscape:groupmode="layer"
     id="layer1"
     inkscape:label="Base"
     sodipodi:insensitive="true" />
  <g
     inkscape:groupmode="layer"
     id="layer2"
     inkscape:label="Topónimos"
     style="display:inline">
    <text
       xml:space="preserve"
       style="font-size:15.19026852px;font-family:Arial"
       x="561.2804"
       y="-49.324524"
       id="text5608"><tspan
         sodipodi:role="line"
         id="tspan5610"
         x="561.2804"
         y="-49.324524">Tegueste</tspan></text>
    <text
       id="text5612"
       y="-48.56501"
       x="470.13879"
       style="font-size:15.19026852px;font-family:Arial"
       xml:space="preserve"><tspan
         y="-48.56501"
         x="470.13879"
         id="tspan5614"
         sodipodi:role="line"
         style="font-size:15.19026852px;text-align:center;text-anchor:middle;font-family:Arial">San Cristóbal</tspan><tspan
         y="-29.577174"
         x="470.13879"
         sodipodi:role="line"
         id="tspan5650"
         style="font-size:15.19026852px;text-align:center;text-anchor:middle;font-family:Arial">de la Laguna</tspan></text>
    <text
       xml:space="preserve"
       style="font-size:15.19026852px;text-align:center;text-anchor:middle;font-family:Arial"
       x="722.58667"
       y="29.15852"
       id="text5616"><tspan
         sodipodi:role="line"
         id="tspan5618"
         x="722.58667"
         y="29.15852">Santa Cruz</tspan><tspan
         sodipodi:role="line"
         x="722.58667"
         y="48.146355"
         id="tspan5620">de Tenerife</tspan></text>
    <text
       id="text5622"
       y="128.26021"
       x="577.9895"
       style="font-size:15.19026852px;font-family:Arial"
       xml:space="preserve"><tspan
         y="128.26021"
         x="577.9895"
         id="tspan5624"
         sodipodi:role="line">El Rosario</tspan></text>
    <text
       xml:space="preserve"
       style="font-size:15.19026852px;font-family:Arial"
       x="533.93781"
       y="179.56769"
       id="text5626"><tspan
         sodipodi:role="line"
         id="tspan5628"
         x="533.93781"
         y="179.56769">Candelaria</tspan></text>
    <text
       id="text5630"
       y="230.78989"
       x="536.21637"
       style="font-size:15.19026852px;font-family:Arial"
       xml:space="preserve"><tspan
         y="230.78989"
         x="536.21637"
         id="tspan5632"
         sodipodi:role="line">Arafo</tspan></text>
    <text
       xml:space="preserve"
       style="font-size:15.19026852px;font-family:Arial"
       x="505.83597"
       y="282.00464"
       id="text5634"><tspan
         sodipodi:role="line"
         id="tspan5636"
         x="505.83597"
         y="282.00464">Güímar</tspan></text>
    <text
       id="text5638"
       y="333.13412"
       x="496.72174"
       style="font-size:15.19026852px;font-family:Arial"
       xml:space="preserve"><tspan
         y="333.13412"
         x="496.72174"
         id="tspan5640"
         sodipodi:role="line">Fasnia</tspan></text>
    <text
       xml:space="preserve"
       style="font-size:15.19026852px;font-family:Arial"
       x="452.67004"
       y="384.3526"
       id="text5642"><tspan
         sodipodi:role="line"
         id="tspan5644"
         x="452.67004"
         y="384.3526">Arico</tspan></text>
    <text
       id="text5646"
       y="435.66006"
       x="401.02325"
       style="font-size:15.19026852px;font-family:Arial"
       xml:space="preserve"><tspan
         y="435.66006"
         x="401.02325"
         id="tspan5648"
         sodipodi:role="line">Granadilla de Abona</tspan></text>
    <text
       xml:space="preserve"
       style="font-size:15.19026852px;font-family:Arial"
       x="47.090015"
       y="234.73343"
       id="text13782"><tspan
         sodipodi:role="line"
         id="tspan13784"
         x="47.090015"
         y="234.73343">Santiago</tspan><tspan
         sodipodi:role="line"
         x="47.090015"
         y="253.72126"
         id="tspan13786">del Teide</tspan></text>
    <text
       id="text13788"
       y="299.58884"
       x="34.17828"
       style="font-size:15.19026852px;font-family:Arial"
       xml:space="preserve"><tspan
         id="tspan13792"
         y="299.58884"
         x="34.17828"
         sodipodi:role="line">Guía de Isora</tspan></text>
    <text
       xml:space="preserve"
       style="font-size:15.19026852px;font-family:Arial"
       x="116.20573"
       y="344.50739"
       id="text13796"><tspan
         sodipodi:role="line"
         x="116.20573"
         y="344.50739"
         id="tspan13798">Adeje</tspan></text>
    <text
       id="text13800"
       y="393.42651"
       x="134.43405"
       style="font-size:15.19026852px;font-family:Arial"
       xml:space="preserve"><tspan
         id="tspan13802"
         y="393.42651"
         x="134.43405"
         sodipodi:role="line">Vilaflor</tspan></text>
    <text
       xml:space="preserve"
       style="font-size:15.19026852px;font-family:Arial"
       x="173.92876"
       y="440.22717"
       id="text13804"><tspan
         sodipodi:role="line"
         x="173.92876"
         y="440.22717"
         id="tspan13806">Arona</tspan></text>
    <text
       id="text13808"
       y="485.37286"
       x="237.72794"
       style="font-size:15.19026852px;font-family:Arial"
       xml:space="preserve"><tspan
         id="tspan13810"
         y="485.37286"
         x="237.72794"
         sodipodi:role="line">San Miguel de Abona</tspan></text>
    <text
       id="text13818"
       y="77.727402"
       x="101.68016"
       style="font-size:15.19026852px;text-align:center;text-anchor:middle;font-family:Arial"
       xml:space="preserve"
       transform="matrix(0.8660254,0.5,-0.5,0.8660254,0,0)"><tspan
         y="77.727402"
         x="101.68016"
         sodipodi:role="line"
         id="tspan13826">Buenavista</tspan><tspan
         y="96.715237"
         x="101.68016"
         sodipodi:role="line"
         id="tspan13954">del Norte</tspan></text>
    <text
       xml:space="preserve"
       style="font-size:15.19026852px;text-align:center;text-anchor:middle;font-family:Arial"
       x="138.63829"
       y="41.615585"
       id="text13828"
       transform="matrix(0.8660254,0.5,-0.5,0.8660254,0,0)"><tspan
         id="tspan13832"
         sodipodi:role="line"
         x="138.63829"
         y="41.615585">Los Silos</tspan></text>
    <text
       id="text13836"
       y="19.92275"
       x="142.81731"
       style="font-size:15.19026852px;text-align:center;text-anchor:middle;font-family:Arial"
       xml:space="preserve"
       transform="matrix(0.8660254,0.5,-0.5,0.8660254,0,0)"><tspan
         y="19.92275"
         x="142.81731"
         sodipodi:role="line"
         id="tspan13838">El Tanque</tspan></text>
    <text
       xml:space="preserve"
       style="font-size:15.19026852px;text-align:center;text-anchor:middle;font-family:Arial"
       x="212.15065"
       y="4.9561796"
       id="text13840"
       transform="matrix(0.8660254,0.5,-0.5,0.8660254,0,0)"><tspan
         id="tspan13842"
         sodipodi:role="line"
         x="212.15065"
         y="4.9561796">Garachico</tspan></text>
    <text
       id="text13844"
       y="-15.431247"
       x="200.38034"
       style="font-size:15.19026852px;text-align:center;text-anchor:middle;font-family:Arial"
       xml:space="preserve"
       transform="matrix(0.8660254,0.5,-0.5,0.8660254,0,0)"><tspan
         y="-15.431247"
         x="200.38034"
         sodipodi:role="line"
         id="tspan13848">Icod de los Vinos</tspan></text>
    <text
       xml:space="preserve"
       style="font-size:15.19026852px;text-align:center;text-anchor:middle;font-family:Arial"
       x="240.36894"
       y="-36.647659"
       id="text13850"
       transform="matrix(0.8660254,0.5,-0.5,0.8660254,0,0)"><tspan
         id="tspan13854"
         sodipodi:role="line"
         x="240.36894"
         y="-36.647659">La Guancha</tspan></text>
    <text
       id="text13858"
       y="-56.386864"
       x="234.14029"
       style="font-size:15.19026852px;text-align:center;text-anchor:middle;font-family:Arial"
       xml:space="preserve"
       transform="matrix(0.8660254,0.5,-0.5,0.8660254,0,0)"><tspan
         y="-56.386864"
         x="234.14029"
         sodipodi:role="line"
         id="tspan13864">San Juan de la Rambla</tspan></text>
    <text
       xml:space="preserve"
       style="font-size:15.19026852px;text-align:center;text-anchor:middle;font-family:Arial"
       x="296.57132"
       y="-75.445915"
       id="text13868"
       transform="matrix(0.8660254,0.5,-0.5,0.8660254,0,0)"><tspan
         id="tspan13872"
         sodipodi:role="line"
         x="296.57132"
         y="-75.445915">Los Realejos</tspan></text>
    <text
       id="text13876"
       y="-95.70665"
       x="293.21069"
       style="font-size:15.19026852px;text-align:center;text-anchor:middle;font-family:Arial"
       xml:space="preserve"
       transform="matrix(0.8660254,0.5,-0.5,0.8660254,0,0)"><tspan
         y="-95.70665"
         x="293.21069"
         sodipodi:role="line"
         id="tspan13952">Puerto de la Cruz</tspan></text>
    <text
       xml:space="preserve"
       style="font-size:15.19026852px;text-align:center;text-anchor:middle;font-family:Arial"
       x="393.01984"
       y="132.78413"
       id="text13882"><tspan
         id="tspan13886"
         sodipodi:role="line"
         x="393.01984"
         y="132.78413">La</tspan><tspan
         sodipodi:role="line"
         x="393.01984"
         y="151.77197"
         id="tspan13956">Orotava</tspan></text>
    <text
       xml:space="preserve"
       style="font-size:15.19026852px;text-align:center;text-anchor:middle;font-family:Arial"
       x="339.62622"
       y="-128.70709"
       id="text13894"
       transform="matrix(0.8660254,0.5,-0.5,0.8660254,0,0)"><tspan
         id="tspan13898"
         sodipodi:role="line"
         x="339.62622"
         y="-128.70709">Santa Úrsula</tspan></text>
    <text
       id="text13902"
       y="-148.63806"
       x="311.64883"
       style="font-size:15.19026852px;text-align:center;text-anchor:middle;font-family:Arial"
       xml:space="preserve"
       transform="matrix(0.8660254,0.5,-0.5,0.8660254,0,0)"><tspan
         y="-148.63806"
         x="311.64883"
         sodipodi:role="line"
         id="tspan13930">La Victoria de Acentejo</tspan></text>
    <text
       xml:space="preserve"
       style="font-size:15.19026852px;text-align:center;text-anchor:middle;font-family:Arial"
       x="314.07639"
       y="-167.37897"
       id="text13908"
       transform="matrix(0.8660254,0.5,-0.5,0.8660254,0,0)"><tspan
         id="tspan13912"
         sodipodi:role="line"
         x="314.07639"
         y="-167.37897">La Matanza de Acentejo</tspan></text>
    <text
       id="text13914"
       y="-186.18958"
       x="364.42383"
       style="font-size:15.19026852px;text-align:center;text-anchor:middle;font-family:Arial"
       xml:space="preserve"
       transform="matrix(0.8660254,0.5,-0.5,0.8660254,0,0)"><tspan
         y="-186.18958"
         x="364.42383"
         sodipodi:role="line"
         id="tspan13918">El Sauzal</tspan></text>
    <text
       xml:space="preserve"
       style="font-size:15.19026852px;text-align:center;text-anchor:middle;font-family:Arial"
       x="359.80472"
       y="-207.24353"
       id="text13922"
       transform="matrix(0.8660254,0.5,-0.5,0.8660254,0,0)"><tspan
         id="tspan13924"
         sodipodi:role="line"
         x="359.80472"
         y="-207.24353">Tacoronte</tspan></text>
    <path
       style="fill:none;fill-rule:evenodd;stroke:#000000;stroke-width:1.70890522;stroke-linecap:butt;stroke-linejoin:miter;stroke-miterlimit:4;stroke-dasharray:none;stroke-opacity:1"
       d="M 584.82533,-42.488903 L 527.48207,14.854359"
       id="path14002" />
    <path
       style="fill:none;fill-rule:evenodd;stroke:#000000;stroke-width:1.70890522;stroke-linecap:butt;stroke-linejoin:miter;stroke-miterlimit:4;stroke-dasharray:none;stroke-opacity:1"
       d="M 413.93481,69.159568 L 425.28296,88.815141"
       id="path14004" />
    <path
       style="fill:none;fill-rule:evenodd;stroke:#000000;stroke-width:1.70890522;stroke-linecap:butt;stroke-linejoin:miter;stroke-miterlimit:4;stroke-dasharray:none;stroke-opacity:1"
       d="M 150.38365,106.37572 C 172.02651,118.04329 196.79659,126.58363 193.08169,163.60895"
       id="path14006"
       sodipodi:nodetypes="cc" />
    <path
       style="fill:none;fill-rule:evenodd;stroke:#000000;stroke-width:1.70890522;stroke-linecap:butt;stroke-linejoin:miter;stroke-miterlimit:4;stroke-dasharray:none;stroke-opacity:1"
       d="M 130.63631,120.80648 L 169.40143,143.18753"
       id="path14008" />
    <path
       style="fill:none;fill-rule:evenodd;stroke:#000000;stroke-width:1.70890522;stroke-linecap:butt;stroke-linejoin:miter;stroke-miterlimit:4;stroke-dasharray:none;stroke-opacity:1"
       d="M 529.33769,227.85471 L 460.30828,158.8253"
       id="path14979" />
    <path
       style="fill:none;fill-rule:evenodd;stroke:#000000;stroke-width:1.70890522;stroke-linecap:butt;stroke-linejoin:miter;stroke-miterlimit:4;stroke-dasharray:none;stroke-opacity:1"
       d="M 488.36712,326.63461 L 451.19649,262.2532"
       id="path15950" />
    <path
       style="fill:none;fill-rule:evenodd;stroke:#000000;stroke-width:1.70890522;stroke-linecap:butt;stroke-linejoin:miter;stroke-miterlimit:4;stroke-dasharray:none;stroke-opacity:1"
       d="M 573.43262,123.84453 L 526.0794,111.15627"
       id="path19828" />
    <path
       style="fill:none;fill-rule:evenodd;stroke:#000000;stroke-width:1.70890522;stroke-linecap:butt;stroke-linejoin:miter;stroke-miterlimit:4;stroke-dasharray:none;stroke-opacity:1"
       d="M 186.0808,389.67423 L 294.06607,327.3289"
       id="path20799" />
    <text
       xml:space="preserve"
       style="font-size:18.98783493px;font-style:normal;text-align:center;text-anchor:middle;fill:#d4aa00;font-family:Arial;font-weight:bold"
       x="675.29181"
       y="76.332748"
       id="text21770"><tspan
         sodipodi:role="line"
         id="tspan21772"
         x="675.29181"
         y="76.332748">ZONA</tspan><tspan
         sodipodi:role="line"
         x="675.29181"
         y="100.06754"
         id="tspan21780">METROPOLITANA</tspan></text>
    <text
       id="text21782"
       y="-16.159105"
       x="136.71234"
       style="font-size:18.98783493px;font-style:normal;text-align:center;text-anchor:middle;fill:#216778;font-family:Arial;font-weight:bold"
       xml:space="preserve"><tspan
         id="tspan21788"
         y="-16.159105"
         x="136.71234"
         sodipodi:role="line">ZONA NORTE</tspan></text>
    <text
       xml:space="preserve"
       style="font-size:18.98783493px;font-style:normal;text-align:center;text-anchor:middle;fill:#a02c2c;font-family:Arial;font-weight:bold"
       x="648.45563"
       y="374.73712"
       id="text21794"><tspan
         sodipodi:role="line"
         x="648.45563"
         y="374.73712"
         id="tspan21796">ZONA SUR</tspan></text>
  </g> -->
</svg>
